<?xml version="1.0" standalone="no"?>
<!DOCTYPE svg PUBLIC "-//W3C//DTD SVG 20010904//EN"
 "http://www.w3.org/TR/2001/REC-SVG-20010904/DTD/svg10.dtd">
<svg version="1.0" xmlns="http://www.w3.org/2000/svg"
 width="1187.000000pt" height="979.000000pt" viewBox="0 0 1187.000000 979.000000"
 preserveAspectRatio="xMidYMid meet">
<metadata>
Created by potrace 1.16, written by Peter Selinger 2001-2019
</metadata>
<g transform="translate(0.000000,979.000000) scale(0.100000,-0.100000)"
fill="#000000" stroke="none">
<path d="M10917 9634 c-4 -4 -23 -7 -42 -6 -19 1 -35 -3 -35 -8 0 -6 -18 -10
-40 -10 -28 0 -40 -4 -40 -14 0 -15 -37 -32 -47 -22 -4 3 -1 6 5 6 7 0 12 4
12 9 0 5 -19 3 -42 -4 -24 -6 -49 -10 -57 -7 -8 3 -11 0 -7 -6 4 -7 -14 -13
-49 -17 -30 -4 -55 -12 -55 -17 0 -6 -16 -8 -35 -6 -19 2 -35 0 -35 -4 0 -4 5
-8 10 -8 18 0 11 -19 -7 -20 -27 -1 -82 -7 -90 -10 -5 -1 -20 -1 -34 0 -15 0
-29 -5 -32 -13 -3 -9 -20 -13 -51 -12 -28 0 -45 -3 -42 -10 2 -5 9 -9 15 -7 6
1 11 -2 11 -7 0 -5 -32 -8 -70 -7 -54 2 -73 -1 -79 -12 -6 -11 -18 -13 -46 -9
-28 5 -36 3 -32 -7 6 -16 -44 -9 -55 8 -5 7 -8 4 -8 -7 0 -15 -5 -17 -28 -12
-22 4 -33 1 -48 -16 -10 -12 -14 -19 -7 -16 6 4 14 3 18 -2 4 -7 -29 -9 -89
-7 -76 3 -96 1 -100 -11 -4 -8 -11 -11 -18 -7 -27 17 -118 0 -118 -22 0 -8 -9
-14 -20 -14 -11 0 -20 4 -20 9 0 14 -49 10 -61 -5 -6 -8 -17 -14 -23 -14 -6 0
-4 5 4 10 23 15 6 12 -26 -5 -20 -10 -30 -11 -35 -3 -5 8 -21 5 -56 -10 -47
-20 -156 -32 -170 -19 -11 12 -23 8 -23 -8 0 -9 -6 -12 -15 -9 -8 4 -13 10
-10 14 3 5 -4 6 -15 3 -11 -3 -20 -9 -20 -14 0 -4 -10 -13 -21 -20 -12 -6 -19
-7 -15 -1 12 20 -28 22 -64 3 -31 -16 -51 -19 -119 -15 -58 4 -81 2 -81 -6 0
-7 -7 -9 -16 -6 -9 4 -36 -3 -59 -14 -33 -16 -48 -18 -69 -11 -23 9 -26 8 -26
-12 0 -13 -3 -17 -8 -10 -15 23 -92 20 -92 -4 0 -15 -2 -15 -14 2 -11 16 -17
17 -28 7 -9 -7 -30 -10 -49 -7 -29 4 -30 3 -9 -4 16 -6 19 -9 8 -10 -9 -1 -18
-6 -20 -12 -2 -7 -12 -7 -28 -1 -14 5 -47 6 -75 2 -39 -6 -43 -8 -20 -10 25
-3 -10 -8 -142 -22 -13 -1 -23 -5 -23 -9 0 -3 -20 -7 -45 -7 -25 -1 -50 -4
-56 -8 -17 -10 -59 -12 -65 -3 -3 5 -19 9 -35 9 -18 0 -28 -4 -24 -10 4 -6
-11 -10 -39 -8 -31 1 -52 -4 -64 -15 -20 -19 -62 -23 -62 -7 0 6 -8 10 -17 9
-11 0 -13 -3 -5 -6 21 -8 13 -26 -10 -20 -12 4 -28 1 -35 -5 -9 -7 -17 -7 -27
1 -9 8 -21 8 -40 1 -14 -5 -32 -7 -40 -4 -8 3 -25 -1 -38 -9 -24 -15 -84 -17
-105 -4 -8 5 -13 4 -13 -2 0 -12 -22 -11 -31 2 -3 4 -17 3 -32 -2 -14 -6 -43
-9 -64 -7 -21 2 -41 -1 -45 -7 -8 -13 -78 -16 -78 -4 0 5 -4 5 -10 2 -18 -11
-50 -14 -50 -4 0 5 -5 9 -11 9 -6 0 -9 -6 -6 -12 7 -19 -50 -20 -79 -2 -28 19
-32 9 -7 -18 21 -23 1 -25 -41 -3 -22 11 -31 12 -37 4 -5 -8 -8 -7 -11 2 -4
11 -11 12 -36 2 -20 -7 -32 -7 -32 -1 0 5 -10 6 -22 2 -13 -4 -40 -6 -61 -6
-25 1 -36 -2 -32 -9 5 -7 -5 -8 -29 -4 -26 5 -40 3 -51 -9 -9 -9 -21 -16 -26
-16 -15 0 -10 17 6 24 28 10 15 22 -20 18 -21 -3 -35 -10 -35 -18 0 -17 -47
-19 -52 -2 -6 16 -64 -6 -60 -23 1 -8 -4 -5 -13 5 -18 24 -49 31 -41 10 4 -11
-3 -9 -24 6 -20 15 -37 19 -48 14 -14 -6 -12 -9 11 -12 51 -7 27 -20 -30 -16
-54 4 -56 3 -38 -12 20 -16 20 -16 0 -9 -43 16 -66 17 -82 4 -9 -8 -14 -9 -10
-3 10 16 -10 21 -65 16 -30 -2 -46 -8 -42 -14 5 -7 -10 -9 -45 -6 -36 4 -54 1
-59 -8 -5 -9 -19 -10 -59 -3 -40 8 -59 7 -80 -4 -40 -20 -83 -29 -83 -17 0 5
-27 8 -67 6 -57 -3 -67 -6 -65 -20 3 -15 0 -15 -17 -4 -17 10 -25 10 -41 0
-25 -15 -38 -16 -22 0 19 19 14 33 -6 15 -10 -10 -22 -14 -26 -10 -4 4 -4 0
-1 -9 5 -12 1 -14 -19 -11 -14 3 -26 10 -26 15 0 6 -8 7 -17 3 -10 -4 -37 -7
-60 -6 -24 1 -43 -2 -43 -7 0 -5 -9 -12 -20 -15 -11 -3 -20 -1 -20 3 0 5 -12
2 -27 -6 -16 -7 -47 -14 -70 -14 -23 0 -45 -5 -49 -11 -4 -8 -9 -7 -14 2 -7
10 -12 10 -22 1 -8 -6 -24 -9 -36 -5 -16 4 -22 1 -22 -10 0 -12 -13 -16 -57
-16 -32 0 -71 -1 -88 -2 -16 -1 -34 -1 -40 1 -23 6 -65 -1 -65 -10 0 -5 13 -7
30 -3 20 4 30 2 30 -7 0 -7 -8 -10 -20 -7 -11 3 -23 1 -26 -4 -11 -18 -44 -10
-44 11 0 11 -4 20 -10 20 -5 0 -10 -4 -10 -10 0 -5 -8 -10 -18 -10 -11 0 -27
-9 -37 -20 -10 -11 -25 -20 -33 -20 -9 0 -6 7 9 20 13 10 18 19 12 20 -7 0
-13 -4 -13 -10 0 -5 -9 -10 -20 -10 -11 0 -20 -7 -20 -15 0 -21 -49 -19 -67 3
-14 16 -14 16 -8 -3 5 -15 3 -17 -6 -8 -6 6 -18 9 -27 6 -10 -4 -13 -2 -8 5 4
7 2 12 -3 12 -6 0 -11 -9 -11 -20 0 -11 -6 -21 -12 -21 -7 -1 -47 -3 -88 -5
-53 -3 -77 -8 -83 -19 -4 -8 -16 -15 -25 -15 -16 1 -16 1 1 11 9 6 15 14 13
18 -9 14 -63 -1 -91 -25 -22 -18 -31 -21 -42 -13 -10 9 -28 8 -73 -1 -33 -7
-63 -12 -67 -12 -5 0 -14 -4 -20 -10 -7 -6 -13 -7 -13 -3 0 4 -6 2 -14 -4 -9
-8 -42 -12 -83 -10 -62 2 -68 0 -65 -17 2 -14 1 -16 -6 -6 -7 10 -22 12 -48 8
-22 -3 -43 -5 -47 -6 -5 0 -5 -5 -1 -12 4 -6 3 -8 -4 -4 -6 3 -22 2 -36 -4
-14 -5 -28 -5 -30 -1 -8 12 -56 20 -56 10 0 -5 -6 -9 -13 -9 -7 0 -19 -9 -26
-19 -12 -16 -24 -18 -75 -16 -41 3 -51 1 -31 -4 l30 -7 -40 -7 c-67 -11 -99
-12 -114 -3 -7 5 -16 4 -20 -1 -3 -6 -33 -10 -66 -10 -33 0 -69 -4 -81 -11
-16 -9 -25 -8 -42 4 -15 10 -23 11 -28 3 -3 -6 -1 -15 6 -19 8 -5 7 -9 -5 -13
-9 -4 -13 -3 -10 2 3 5 0 13 -6 17 -6 3 -15 1 -19 -6 -4 -6 -10 -11 -14 -11
-3 0 -13 -2 -21 -6 -9 -3 -19 -3 -22 1 -4 3 1 6 10 6 9 0 17 5 17 10 0 14 -23
13 -38 -2 -9 -9 -15 -9 -24 0 -7 7 -19 12 -27 11 -11 0 -12 -2 -3 -6 31 -12 7
-21 -48 -16 -62 6 -73 0 -43 -22 15 -12 14 -12 -10 -8 -19 4 -26 10 -23 20 4
10 0 13 -17 11 -12 -2 -21 -8 -20 -14 1 -7 -8 -9 -22 -6 -13 2 -37 -3 -54 -11
-24 -12 -31 -12 -35 -1 -7 18 -74 30 -89 15 -7 -7 -7 -12 -2 -11 6 2 21 2 34
1 38 -2 17 -13 -31 -16 -186 -15 -182 -15 -162 0 22 16 61 20 66 6 2 -5 14 0
28 11 l25 20 -50 -8 c-28 -5 -62 -8 -77 -8 -19 1 -28 -4 -28 -15 0 -14 -2 -14
-10 -1 -6 10 -10 11 -10 3 0 -9 -22 -13 -77 -13 -43 0 -73 4 -66 8 6 4 -49 6
-123 5 -91 -2 -134 1 -134 9 0 5 -9 8 -20 5 -11 -3 -20 -1 -20 4 0 5 -21 9
-46 9 -56 0 -184 29 -202 45 -9 8 -25 10 -48 5 -25 -6 -34 -5 -31 3 2 7 12 11
22 10 11 -1 14 2 7 9 -7 7 -17 6 -30 -1 -11 -6 -31 -11 -44 -11 -21 1 -20 2 7
15 l30 14 -36 -5 c-20 -3 -39 -1 -43 4 -4 6 -20 7 -43 2 -20 -5 -41 -7 -45 -4
-4 3 -8 1 -8 -5 0 -5 -9 -13 -20 -16 -12 -4 -17 -11 -13 -18 4 -7 -1 -6 -11 2
-12 10 -13 16 -6 21 8 5 6 9 -5 14 -14 5 -16 2 -11 -20 7 -26 -9 -58 -24 -49
-4 2 -8 -23 -9 -55 -1 -33 2 -60 7 -60 4 0 6 17 4 38 -3 20 -2 35 1 32 3 -3 7
-31 10 -64 3 -32 9 -61 14 -65 6 -3 26 -28 46 -54 21 -27 37 -46 37 -43 0 3
17 -13 38 -36 55 -63 60 -68 68 -68 4 0 12 -6 18 -14 6 -8 21 -17 33 -21 19
-5 22 -3 17 12 -5 14 -3 14 9 -3 17 -22 65 -38 105 -35 12 2 22 -2 22 -7 0 -5
13 -9 29 -10 17 0 40 -6 53 -13 13 -7 26 -12 31 -11 4 1 7 -3 7 -9 0 -6 6 -9
13 -6 8 3 20 1 28 -3 8 -5 16 -5 19 1 4 5 16 1 29 -10 18 -16 35 -19 92 -17
68 2 92 -3 89 -20 -1 -5 3 -10 9 -12 6 -2 8 3 5 12 -5 12 0 16 20 16 17 0 24
-4 20 -14 -4 -10 2 -12 21 -8 20 3 24 7 13 14 -9 7 -4 8 16 3 15 -3 35 -13 43
-20 18 -18 18 -18 37 1 14 13 22 14 49 5 21 -8 33 -8 35 -1 2 5 10 10 18 10 9
0 12 -5 8 -11 -4 -7 0 -9 12 -6 42 12 144 19 144 9 0 -5 12 -7 26 -4 16 3 30
-1 35 -9 7 -12 11 -12 18 -1 5 9 41 15 107 18 54 3 111 6 127 6 16 1 27 7 27
15 0 8 4 12 9 9 5 -3 32 -8 60 -10 38 -3 51 -1 51 9 0 10 9 11 43 3 33 -7 44
-6 51 5 7 11 19 12 54 5 33 -6 48 -5 53 4 5 8 55 13 166 15 98 2 159 7 161 13
2 6 17 8 38 4 22 -4 34 -2 34 5 0 6 7 8 15 5 8 -4 21 -1 29 5 7 6 21 9 30 5 9
-3 16 -1 16 5 0 8 6 9 18 3 22 -12 42 -5 42 14 0 9 4 13 9 10 16 -10 71 6 71
21 0 9 5 11 12 7 7 -5 27 -7 45 -5 19 1 33 -2 33 -8 0 -21 19 -11 22 11 3 20
4 21 20 5 16 -16 18 -16 26 -1 6 11 11 13 16 5 10 -15 27 -14 21 2 -7 17 80
26 128 13 22 -7 26 -5 21 7 -4 12 0 15 23 13 15 -2 30 0 33 5 7 11 186 28 230
22 25 -3 31 -2 20 6 -8 5 -18 7 -22 5 -4 -3 -8 0 -8 7 0 8 13 10 40 6 22 -3
40 -1 40 4 0 6 35 9 80 8 68 -1 83 1 96 17 11 14 17 15 20 7 3 -7 12 -13 19
-13 7 0 15 6 18 13 3 8 10 7 26 -7 23 -21 41 -15 22 8 -10 12 -6 13 29 9 27
-4 40 -2 40 6 0 7 9 9 26 5 19 -5 25 -4 20 5 -8 12 -10 12 106 14 42 1 74 5
72 9 -3 5 10 7 28 7 18 -1 48 2 66 6 20 5 32 4 32 -3 0 -5 9 -8 21 -5 14 4 17
8 9 13 -21 13 7 22 45 14 23 -4 35 -12 36 -23 0 -9 5 -4 11 11 8 23 14 27 33
22 13 -3 30 -2 37 2 22 14 58 15 58 2 0 -9 3 -9 12 0 7 7 21 12 33 11 20 0 20
0 0 -10 -15 -6 -11 -7 15 -3 19 4 39 13 43 20 4 8 20 14 35 14 21 0 24 -2 12
-10 -24 -16 14 -13 55 5 20 8 56 13 83 11 37 -3 40 -2 12 3 l-35 6 34 8 c18 4
38 4 45 0 6 -5 20 -8 31 -9 11 -1 35 -5 53 -9 19 -5 32 -4 32 2 0 12 71 27
115 25 17 0 37 2 45 5 20 9 120 10 120 1 0 -3 -8 -9 -17 -11 -17 -4 -17 -5 -1
-6 10 0 27 13 40 29 18 25 24 28 31 15 4 -8 16 -15 25 -14 14 0 14 2 -3 10
-15 7 -11 8 15 3 58 -10 75 -10 73 4 -2 7 9 12 30 12 38 0 65 -14 48 -24 -6
-4 -11 -2 -11 3 0 6 -11 11 -25 11 -14 0 -25 -5 -25 -11 0 -6 9 -9 20 -6 11 3
22 1 25 -4 4 -5 16 -7 28 -5 12 3 25 5 29 5 5 1 7 4 7 9 -3 20 3 23 18 11 14
-12 16 -12 8 0 -6 11 -2 10 16 -2 29 -21 52 -22 25 -2 -19 15 -19 15 1 15 12
0 25 -5 28 -10 4 -6 12 -5 21 5 12 11 20 12 39 3 18 -8 39 -8 82 1 38 7 60 8
67 1 15 -15 76 -12 82 4 4 10 30 14 107 14 192 2 207 3 207 12 0 6 5 10 11 10
5 0 7 -4 4 -10 -3 -5 3 -10 14 -10 12 0 21 6 21 13 0 9 25 12 92 12 63 0 93 4
96 13 2 7 11 12 19 12 11 0 13 -3 5 -13 -9 -10 -4 -13 18 -15 16 -1 31 2 35 8
3 5 -1 10 -9 10 -8 0 -17 4 -21 9 -3 6 8 6 27 0 18 -6 41 -13 50 -16 28 -9 89
6 83 20 -4 7 0 4 8 -5 17 -22 31 -23 23 -3 -4 11 1 15 19 15 14 0 25 -6 25
-12 0 -9 3 -9 9 1 7 10 20 12 50 7 33 -5 41 -3 41 9 0 8 7 15 16 15 8 0 12 -5
8 -11 -4 -7 1 -9 12 -7 11 2 18 10 16 17 -2 8 3 11 11 8 8 -3 19 -1 25 5 6 6
12 6 16 -1 11 -17 57 -14 50 3 -4 10 0 13 13 11 10 -2 18 -4 18 -6 0 -1 36 -3
80 -4 44 -1 69 2 55 5 -24 6 -23 7 10 15 19 4 69 9 111 10 43 2 83 6 91 11 11
7 54 13 126 18 12 0 22 8 23 16 0 10 2 11 6 3 7 -18 49 -16 68 3 11 11 25 14
45 10 22 -4 30 -2 30 9 0 10 10 15 28 14 26 0 26 -1 5 -9 -13 -5 -23 -14 -23
-20 0 -6 14 -4 37 5 20 8 46 13 57 10 12 -3 15 -2 9 1 -7 3 -13 10 -13 15 0
10 51 6 70 -6 9 -5 11 -4 6 3 -4 7 -6 12 -4 12 2 1 30 3 63 6 33 3 72 9 88 14
15 5 27 6 27 2 0 -4 15 -7 34 -7 19 0 32 4 29 11 -5 13 44 40 54 30 5 -4 -1
-14 -12 -23 -19 -15 -19 -15 5 -8 14 4 30 13 36 21 6 8 17 14 24 14 10 0 10
-3 0 -15 -17 -21 -1 -19 22 2 13 12 36 17 73 17 29 0 52 3 49 7 -2 4 10 7 28
7 18 0 36 1 41 2 19 6 31 8 86 9 39 1 65 6 75 17 9 8 16 11 16 5 0 -6 5 -11
11 -11 5 0 8 4 5 9 -3 5 7 8 22 8 15 0 36 4 46 8 15 7 18 5 11 -6 -6 -11 -5
-11 5 -2 7 7 25 9 40 6 15 -3 30 0 34 5 3 6 21 8 39 6 30 -4 31 -4 13 11 -24
18 -4 20 25 3 17 -11 22 -10 32 2 17 21 61 25 53 5 -3 -8 -1 -15 4 -15 6 0 10
5 10 10 0 6 6 10 14 10 8 0 18 5 22 12 5 8 2 9 -12 4 -10 -4 -15 -4 -11 1 12
11 67 13 67 2 0 -5 7 -9 16 -9 8 0 13 4 10 9 -9 13 26 23 38 11 14 -14 39 -13
33 3 -2 7 4 12 17 13 11 1 45 4 74 8 31 3 52 2 52 -4 0 -5 7 -7 15 -4 8 4 12
11 9 16 -4 7 8 8 33 3 31 -5 42 -3 46 8 3 9 16 13 31 12 14 -2 26 2 26 8 0 5
3 8 6 5 3 -4 20 -2 37 4 18 6 43 10 55 9 13 0 33 6 45 14 12 8 36 15 53 15 18
0 34 5 36 11 3 9 10 9 27 -1 13 -7 26 -8 30 -3 10 15 80 32 122 29 22 -2 42 0
45 5 2 4 11 6 18 3 8 -3 17 0 22 7 5 9 2 10 -9 6 -10 -3 -17 -2 -17 3 0 14 33
13 47 -1 6 -6 9 -18 5 -27 -4 -11 -1 -14 10 -9 12 4 17 -2 21 -21 3 -15 10
-45 17 -67 6 -22 20 -78 31 -125 10 -46 24 -89 29 -94 13 -13 13 -39 0 -31 -5
3 -10 1 -10 -4 0 -6 6 -11 13 -11 8 0 13 -13 13 -32 1 -61 8 -98 50 -263 4
-16 3 -17 -5 -5 -10 13 -11 13 -10 0 0 -8 6 -33 14 -55 8 -22 12 -50 9 -62 -4
-13 -2 -23 2 -23 5 0 10 -10 10 -22 3 -40 14 -152 18 -178 3 -14 5 -31 5 -38
1 -7 6 -10 13 -6 6 4 8 3 4 -4 -3 -6 -3 -70 1 -143 4 -79 9 -125 14 -114 6 16
8 17 8 3 1 -9 -3 -20 -9 -23 -5 -3 -9 -25 -9 -48 1 -23 3 -33 6 -22 3 11 9 24
14 29 9 10 10 -20 13 -331 0 -73 3 -133 6 -133 9 0 5 -165 -4 -179 -11 -16
-11 -78 -1 -110 5 -18 4 -22 -6 -16 -9 6 -10 4 -6 -8 4 -10 10 -24 14 -34 4
-11 3 -14 -5 -9 -8 5 -12 -3 -11 -26 1 -31 1 -32 9 -8 7 22 8 21 9 -12 1 -21
-3 -38 -9 -38 -5 0 -10 -5 -10 -11 0 -5 5 -7 10 -4 6 3 10 1 10 -4 0 -6 -6
-11 -12 -11 -10 0 -9 -3 1 -9 7 -5 10 -14 6 -20 -4 -7 -8 -49 -9 -95 -2 -45
-5 -87 -9 -92 -3 -6 -4 -38 -3 -72 2 -34 -1 -62 -5 -62 -5 0 -9 -10 -9 -22 0
-19 2 -20 11 -8 8 11 9 3 4 -30 -3 -25 -7 -105 -7 -178 0 -73 -4 -134 -7 -136
-3 -3 -5 -33 -4 -68 1 -34 2 -103 1 -153 -1 -49 -3 -135 -3 -190 -1 -55 -3
-104 -4 -110 -2 -5 -2 -32 -2 -60 1 -37 -1 -46 -8 -35 -9 13 -11 13 -11 -1 0
-9 8 -20 17 -23 12 -5 14 -9 6 -14 -9 -6 -10 -24 -2 -76 7 -45 8 -82 1 -109
-5 -23 -8 -72 -7 -109 2 -43 -1 -66 -7 -62 -6 4 -8 -1 -5 -12 17 -56 19 -74 7
-74 -9 0 -10 -3 -1 -14 12 -14 13 -126 1 -126 -4 0 -7 -49 -6 -109 0 -60 -2
-107 -6 -104 -5 2 -8 -3 -8 -11 0 -9 5 -16 10 -16 6 0 10 -5 10 -11 0 -5 -5
-7 -11 -3 -8 4 -8 0 0 -15 9 -15 10 -72 4 -199 -4 -97 -6 -225 -5 -284 0 -63
-3 -108 -8 -108 -6 0 -10 -7 -10 -15 0 -8 5 -15 11 -15 6 0 9 -27 7 -75 -2
-54 -7 -75 -16 -75 -10 0 -11 -7 -5 -22 10 -29 11 -100 1 -113 -4 -6 -3 -29 2
-51 5 -22 7 -60 5 -84 -3 -25 -6 -89 -7 -142 -1 -54 -5 -98 -10 -98 -4 0 -8
-7 -8 -16 0 -8 3 -13 8 -11 4 3 8 -67 9 -155 1 -89 4 -172 8 -185 3 -14 2 -22
-3 -19 -9 5 -10 -131 -1 -150 2 -5 4 -79 4 -166 0 -86 3 -154 8 -151 4 2 6
-22 6 -54 -2 -53 -2 -55 -10 -23 -8 34 -8 34 -3 -5 9 -77 12 -100 14 -105 4
-10 -1 -75 -7 -94 -3 -12 -1 -16 6 -12 6 4 11 3 11 -3 0 -5 -4 -12 -9 -16 -5
-3 -12 -18 -16 -34 -6 -27 -9 -29 -41 -25 -19 2 -34 0 -34 -5 0 -5 8 -8 17 -7
12 0 18 -6 19 -19 1 -18 1 -18 -3 -1 -4 14 -7 16 -13 7 -6 -10 -13 -10 -28 -2
-23 12 -149 12 -130 -1 9 -5 6 -8 -9 -9 -13 -1 -29 -2 -35 -3 -7 -1 -23 2 -36
8 -16 7 -26 6 -35 -4 -10 -10 -8 -12 11 -7 12 3 22 2 22 -3 0 -4 -26 -8 -57
-8 -89 0 -93 0 -93 -21 0 -15 -9 -20 -47 -23 -33 -3 -51 0 -56 9 -4 7 -18 11
-30 10 -12 -2 -16 -2 -9 0 28 10 9 18 -33 15 -27 -3 -42 -8 -39 -14 4 -6 -1
-8 -14 -4 -11 4 -23 2 -27 -4 -3 -5 -11 -10 -17 -10 -6 0 -5 7 3 17 13 17 13
17 -7 0 -24 -20 -54 -23 -54 -4 0 6 -5 4 -11 -5 -13 -23 -29 -23 -30 0 0 9 -3
12 -5 5 -3 -7 -1 -20 5 -31 7 -14 7 -19 -4 -19 -8 0 -16 6 -19 14 -7 17 -45
17 -66 -2 -8 -8 -43 -17 -75 -21 -33 -3 -62 -8 -64 -10 -2 -2 -12 5 -21 17
-16 18 -19 18 -34 4 -11 -12 -36 -16 -86 -17 -38 0 -68 -4 -65 -8 3 -4 -16 -3
-41 2 -33 7 -53 7 -68 -1 -24 -13 -172 -12 -198 1 -11 5 -18 5 -18 -2 0 -9 21
-15 43 -11 4 0 7 -4 7 -10 0 -8 -13 -9 -40 -5 -26 4 -40 2 -40 -4 0 -6 5 -8
10 -5 6 3 10 2 10 -3 0 -6 -7 -13 -16 -16 -23 -9 -64 4 -64 20 0 11 -6 11 -34
-1 -18 -8 -36 -11 -40 -8 -3 4 -6 2 -6 -4 0 -14 -62 -12 -72 2 -4 6 -8 1 -8
-10 0 -18 -7 -20 -57 -21 -32 0 -67 -2 -78 -3 -11 -1 -41 1 -67 5 -39 5 -48 4
-48 -9 0 -15 -28 -32 -38 -22 -3 2 1 12 8 20 12 14 10 14 -16 4 -16 -6 -46
-11 -66 -10 -20 0 -48 -3 -62 -9 -17 -6 -26 -5 -30 3 -3 9 -6 9 -13 0 -5 -7
-23 -10 -41 -8 -18 2 -32 0 -32 -6 0 -6 -8 -8 -19 -4 -10 3 -23 -1 -29 -8 -9
-11 -26 -12 -74 -5 -110 15 -120 14 -111 -9 7 -17 6 -17 -11 -1 -16 17 -19 17
-47 -5 -30 -22 -31 -22 -45 -3 -8 11 -14 14 -14 7 0 -8 -7 -10 -19 -6 -10 3
-29 2 -42 -3 -13 -5 -46 -12 -72 -16 -42 -7 -48 -5 -45 10 2 9 -3 19 -11 22
-10 3 -12 -1 -8 -17 6 -26 -1 -27 -20 -3 -13 16 -13 16 -11 -3 3 -17 -2 -19
-37 -16 -22 1 -42 7 -43 12 -2 5 -9 6 -15 2 -7 -4 -19 -8 -27 -8 -8 0 -14 -5
-13 -12 2 -9 -4 -10 -20 -4 -26 10 -73 5 -104 -11 -13 -6 -26 -8 -30 -5 -3 4
-1 7 5 7 7 0 12 5 12 10 0 10 -41 7 -59 -4 -5 -4 -11 0 -14 6 -4 10 -7 11 -18
1 -7 -7 -18 -13 -24 -13 -5 0 -3 5 5 10 9 6 10 10 3 10 -6 0 -19 -7 -27 -16
-9 -8 -16 -11 -16 -6 0 12 -53 2 -62 -12 -6 -8 -8 -8 -8 0 0 6 -7 11 -15 11
-8 0 -15 -4 -15 -9 0 -4 -7 -8 -16 -8 -8 0 -12 4 -9 10 6 10 -15 5 -52 -12
-12 -6 -37 -8 -56 -5 -20 3 -40 0 -47 -6 -10 -9 -11 -9 -6 0 3 6 2 14 -4 18
-5 3 -10 1 -10 -4 0 -6 -7 -11 -15 -11 -8 0 -15 5 -15 11 0 6 -7 3 -16 -5 -28
-29 -54 -14 -27 16 16 18 16 18 -3 12 -26 -10 -35 -26 -23 -40 6 -8 5 -14 -6
-18 -9 -3 -15 0 -15 10 0 10 -7 13 -27 9 -16 -4 -38 -8 -50 -11 -12 -2 -24 2
-26 9 -4 9 -8 9 -15 -2 -9 -12 -13 -12 -26 -2 -13 11 -15 10 -11 -7 2 -15 -1
-19 -15 -15 -12 3 -16 11 -13 24 8 28 -4 23 -21 -10 -11 -20 -23 -28 -41 -28
-14 0 -25 5 -25 13 0 7 8 11 20 9 11 -2 22 0 25 6 4 5 -8 9 -24 9 -20 0 -31
-5 -31 -14 0 -8 -4 -18 -10 -21 -6 -3 -7 1 -4 9 3 9 1 16 -5 16 -6 0 -11 -4
-11 -8 0 -5 -15 -9 -32 -10 -18 0 -48 -4 -65 -8 -27 -5 -33 -3 -33 10 0 10 -5
14 -11 11 -6 -4 -8 -13 -6 -20 5 -12 -83 -21 -180 -17 -33 2 -43 -2 -43 -13 0
-9 -9 -15 -25 -15 -14 0 -25 5 -25 11 0 5 4 8 9 4 5 -3 12 -1 16 5 3 5 0 10
-9 10 -8 0 -22 3 -30 6 -12 5 -15 2 -9 -12 5 -14 3 -16 -10 -11 -9 4 -24 10
-33 13 -11 5 -15 2 -12 -12 2 -12 -4 -19 -17 -21 -11 -1 -14 0 -7 3 17 8 15
24 -3 24 -8 0 -31 -8 -51 -18 -26 -12 -38 -14 -41 -5 -3 8 -11 8 -31 -3 -16
-8 -30 -10 -36 -4 -5 5 -16 5 -28 -1 -14 -7 -18 -6 -18 6 0 19 -14 19 -30 0
-10 -12 -16 -13 -26 -4 -11 9 -14 8 -14 -5 0 -9 -8 -16 -17 -16 -15 0 -16 2
-3 10 13 8 12 10 -2 10 -10 0 -18 -4 -18 -10 0 -5 -7 -10 -15 -10 -8 0 -15 4
-15 9 0 5 -11 8 -24 7 -14 0 -22 -6 -19 -13 4 -9 -6 -13 -28 -13 l-34 1 25 14
c24 14 24 14 3 15 -12 0 -27 -8 -32 -17 -7 -11 -14 -14 -18 -8 -11 14 -67 19
-58 6 3 -6 16 -11 28 -12 21 0 21 -1 2 -9 -11 -4 -24 -4 -30 1 -14 13 -53 11
-58 -3 -4 -10 -6 -9 -6 1 -1 10 -4 11 -14 3 -17 -14 -156 -21 -160 -8 -2 5 -9
6 -16 2 -11 -7 -11 -10 0 -16 7 -5 -7 -8 -34 -8 -26 0 -47 4 -47 9 0 6 -4 8
-9 4 -5 -3 -12 -1 -16 5 -3 5 -11 10 -17 10 -7 0 -7 -4 1 -13 9 -11 -5 -13
-72 -13 -45 1 -88 5 -94 9 -15 10 -17 -5 -3 -19 6 -6 1 -10 -18 -10 -15 0 -43
-3 -62 -7 -19 -3 -66 -7 -105 -8 -38 -1 -72 -6 -75 -10 -3 -5 -32 -2 -63 5
-51 12 -58 12 -53 -1 5 -12 1 -14 -20 -9 -14 4 -32 2 -39 -4 -10 -8 -20 -8
-31 -2 -10 6 -27 6 -39 2 -11 -4 -69 -7 -129 -6 -59 0 -110 -2 -112 -5 -2 -3
-29 -5 -61 -4 -32 1 -62 0 -68 -3 -5 -3 -28 -5 -50 -4 -27 2 -36 0 -26 -6 7
-5 9 -12 5 -14 -12 -7 -67 -3 -81 5 -6 4 -23 3 -38 -3 -29 -11 -47 -10 -57 5
-5 7 -8 7 -8 0 0 -6 -38 -10 -95 -9 -52 0 -95 -4 -95 -8 0 -4 -8 -8 -17 -8
-15 0 -16 2 -3 10 13 8 12 10 -2 10 -10 0 -18 -5 -18 -11 0 -7 -21 -8 -65 -4
-49 6 -65 4 -65 -5 0 -9 -12 -11 -40 -7 -22 3 -38 2 -35 -3 2 -4 -34 -8 -80
-8 -47 -1 -85 2 -85 7 0 4 -10 7 -23 5 -12 -1 -32 -3 -45 -3 -13 -1 -21 -5
-18 -10 4 -5 -4 -7 -16 -3 -14 3 -19 2 -14 -6 4 -7 2 -12 -3 -12 -6 0 -11 4
-11 10 0 6 -9 6 -26 0 -31 -12 -57 -12 -29 0 19 8 19 9 -2 9 -12 1 -33 -3 -47
-9 -17 -6 -26 -6 -26 0 0 14 -16 12 -33 -4 -9 -9 -24 -12 -37 -9 -18 5 -21 3
-15 -8 7 -11 6 -12 -7 -2 -11 10 -28 11 -64 4 -27 -5 -50 -6 -52 -1 -2 4 -12
6 -22 3 -11 -3 -17 -10 -14 -17 3 -6 -2 -2 -10 8 -9 11 -16 16 -16 10 0 -11
-56 -10 -84 2 -13 5 -21 3 -24 -4 -2 -7 -11 -12 -20 -12 -15 0 -15 2 -2 10 12
8 11 10 -7 10 -12 0 -30 -3 -40 -7 -16 -6 -15 -8 7 -13 15 -4 1 -7 -35 -7 -42
0 -54 2 -40 9 14 6 12 7 -10 2 -16 -3 -62 -6 -100 -5 -47 1 -81 -3 -100 -13
-17 -9 -40 -16 -52 -16 -12 0 -25 -5 -28 -10 -4 -6 -21 -8 -41 -4 -21 4 -40 2
-49 -6 -8 -7 -24 -10 -35 -7 -11 3 -20 1 -20 -4 0 -4 -7 -6 -16 -2 -13 5 -13
7 -2 14 10 7 9 9 -4 9 -10 0 -18 -4 -18 -10 0 -5 -7 -7 -15 -4 -8 4 -15 2 -15
-4 0 -6 -28 -9 -72 -7 -40 1 -81 -1 -90 -6 -10 -6 -19 -5 -23 1 -8 14 -45 13
-45 -1 0 -6 -9 -9 -19 -6 -12 3 -22 -1 -25 -10 -7 -17 -56 -10 -68 10 -6 9 -8
9 -8 1 0 -8 -26 -12 -80 -11 -50 1 -84 -3 -88 -10 -7 -11 -71 -10 -94 2 -7 4
-5 0 5 -8 16 -13 13 -14 -25 -14 -24 0 -59 -3 -78 -7 -19 -4 -52 -7 -72 -6
-23 0 -38 -4 -38 -11 0 -6 -8 -9 -17 -6 -42 11 -48 11 -46 1 1 -8 -13 -10 -44
-6 -29 3 -44 1 -40 -5 3 -5 -7 -10 -23 -10 -16 0 -27 4 -24 9 3 4 -2 8 -11 8
-9 0 -13 -4 -10 -10 8 -12 8 -12 -33 -1 -17 5 -32 6 -32 1 0 -5 10 -11 23 -13
12 -2 2 -5 -23 -5 -32 -1 -41 1 -30 8 13 8 13 10 -2 10 -9 0 -20 -4 -23 -10
-3 -5 -20 -10 -36 -10 -17 0 -39 -5 -50 -10 -15 -8 -19 -7 -19 5 0 10 -9 15
-27 14 -24 -2 -25 -2 -5 -6 12 -2 22 -9 22 -14 0 -6 -10 -10 -22 -9 -47 4 -99
0 -95 -7 3 -5 -18 -9 -46 -9 -52 -2 -108 -10 -137 -21 -8 -3 -22 -5 -31 -4 -9
1 -29 -4 -45 -10 -16 -7 -35 -11 -41 -10 -7 1 -13 -2 -13 -7 0 -5 -18 -8 -40
-6 -26 2 -40 -1 -40 -9 0 -7 -12 -12 -27 -13 -16 0 -43 -3 -62 -6 -40 -8 -71
8 -71 37 0 17 -2 17 -10 5 -5 -8 -10 -10 -10 -5 0 6 5 16 11 22 7 7 8 20 3 34
-10 31 -11 72 -2 79 3 3 3 34 -1 70 -5 36 -5 67 -2 70 4 3 4 40 1 83 -3 42 -1
77 3 77 5 0 5 9 2 20 -4 13 -2 20 6 20 10 0 10 3 2 11 -8 8 -8 20 -3 34 5 13
7 25 4 27 -2 3 3 40 11 84 19 99 20 123 11 152 -6 16 -3 22 8 22 9 0 16 5 16
11 0 5 -5 7 -12 3 -6 -4 -8 -3 -5 3 4 6 9 28 13 49 3 22 10 68 16 104 6 36 10
78 10 94 -1 16 3 35 8 41 5 7 10 58 11 115 0 58 7 120 14 141 9 25 10 39 3 41
-13 5 0 138 14 138 5 0 6 5 2 12 -10 15 -6 93 6 133 5 17 14 93 21 170 6 77
13 149 14 160 1 11 3 37 4 58 0 21 5 36 10 33 5 -3 9 6 8 22 -2 62 4 133 11
129 4 -3 8 27 9 67 4 100 12 143 25 125 6 -10 8 2 5 38 -3 34 0 50 6 46 6 -4
8 0 4 10 -4 10 -10 24 -14 34 -4 10 -2 14 4 10 7 -5 14 14 18 53 18 158 34
270 39 288 9 29 18 95 21 152 4 59 11 117 22 165 3 17 6 46 5 65 -1 28 0 31 7
15 9 -19 10 -19 10 3 1 12 -3 22 -9 22 -5 0 -10 15 -9 33 0 27 2 29 9 12 6
-14 9 7 11 65 1 47 3 96 5 110 1 14 5 45 7 70 3 25 8 53 11 63 3 9 8 24 11 33
3 8 0 24 -5 35 -8 13 -7 25 0 39 6 11 11 58 11 105 0 46 4 87 8 89 4 3 8 55 9
116 1 61 6 119 12 130 5 10 10 27 10 37 0 15 -2 16 -10 3 -7 -11 -9 -2 -7 30
1 25 5 47 9 51 4 3 10 304 13 670 3 365 8 672 11 683 4 11 2 16 -4 12 -7 -4
-10 29 -8 98 1 58 0 103 -3 101 -3 -1 -6 25 -6 58 -1 78 -15 259 -22 270 -2 4
-6 96 -9 205 -2 108 0 191 4 184 8 -12 9 -1 12 106 0 23 5 42 10 42 5 0 9 12
9 28 0 15 0 54 0 86 0 33 -6 73 -14 90 -7 17 -16 45 -20 61 -7 37 -63 99 -135
149 -30 22 -59 45 -63 53 -5 7 -13 11 -18 8 -5 -4 -7 -10 -4 -14 2 -5 -7 -13
-22 -20 -23 -11 -25 -10 -13 3 11 14 9 16 -9 16 -11 0 -21 -5 -21 -12 0 -9 -3
-9 -12 0 -15 15 -32 16 -23 2 3 -5 -3 -10 -14 -10 -16 0 -21 -7 -22 -27 0 -16
-3 -23 -5 -16 -10 23 -34 2 -28 -23 4 -15 2 -24 -6 -24 -7 0 -10 -7 -6 -15 6
-16 -12 -65 -29 -77 -6 -5 -5 -11 4 -17 10 -6 11 -20 6 -52 -4 -24 -10 -48
-14 -54 -3 -5 -7 -26 -8 -45 -4 -89 -8 -128 -13 -125 -3 2 -6 -8 -6 -21 -1
-13 2 -21 8 -18 6 4 9 -18 6 -59 -1 -36 0 -63 3 -61 3 2 4 -8 1 -21 -2 -14 -8
-22 -13 -19 -5 3 -9 0 -9 -5 0 -6 6 -11 13 -11 7 0 12 -15 13 -37 2 -56 11
-178 13 -178 4 0 8 -30 15 -110 4 -44 10 -88 13 -99 3 -12 1 -16 -6 -12 -6 4
-11 0 -11 -9 0 -9 5 -13 10 -10 6 4 11 -11 11 -37 3 -84 -1 -263 -6 -295 -3
-19 -2 -33 4 -33 6 0 6 -11 1 -30 -5 -17 -5 -28 -1 -25 5 2 9 -6 9 -20 0 -14
-4 -22 -9 -19 -13 7 -11 -3 5 -34 10 -19 13 -66 13 -159 0 -73 -3 -133 -6
-133 -3 0 -6 -48 -7 -107 -1 -60 -2 -128 -3 -153 -1 -25 0 -120 1 -212 2 -91
2 -165 1 -164 -2 1 -7 20 -13 42 l-10 39 6 -45 c3 -24 10 -48 17 -52 9 -6 9
-8 -1 -8 -9 0 -10 -5 -4 -16 6 -11 4 -26 -5 -45 -11 -23 -12 -37 -4 -62 6 -18
8 -63 5 -102 -3 -38 -6 -133 -8 -210 -2 -83 -7 -149 -14 -162 -15 -28 -17 -66
-2 -43 7 11 10 5 10 -22 0 -21 -5 -38 -11 -38 -7 0 -10 -21 -7 -60 2 -48 0
-59 -11 -55 -9 4 -11 0 -6 -12 15 -37 17 -54 10 -90 -6 -35 -8 -37 -21 -18
-12 16 -14 16 -14 3 0 -9 5 -20 10 -23 6 -3 10 -17 10 -31 0 -14 -4 -23 -8
-20 -4 2 -7 -37 -7 -87 1 -51 -4 -98 -9 -106 -6 -8 -12 -32 -12 -55 -1 -23 -7
-61 -13 -85 -10 -36 -10 -45 1 -52 8 -5 9 -9 2 -9 -7 0 -11 -14 -10 -32 1 -18
-2 -55 -6 -83 -5 -27 -9 -65 -9 -84 -1 -24 -4 -30 -10 -20 -5 8 -9 10 -9 4 -1
-5 -3 -44 -5 -85 -4 -90 -7 -103 -24 -124 -12 -14 -11 -16 5 -16 15 0 16 -2 5
-9 -7 -5 -11 -13 -7 -19 3 -6 2 -13 -3 -16 -5 -3 -9 -27 -10 -53 -2 -64 -12
-136 -20 -148 -4 -5 -6 -35 -4 -65 1 -33 -1 -50 -6 -41 -5 8 -8 -5 -7 -35 1
-27 -2 -59 -7 -71 -7 -16 -6 -27 2 -37 7 -8 10 -20 6 -27 -6 -8 -9 -8 -15 0
-4 7 -5 -13 -2 -44 3 -34 1 -55 -6 -55 -5 0 -10 -12 -9 -27 1 -16 0 -57 -2
-93 -2 -49 -5 -60 -12 -45 -6 14 -7 10 -2 -15 3 -19 6 -42 4 -50 -1 -8 -3 -52
-4 -97 -2 -44 -8 -87 -13 -95 -6 -7 -9 -38 -8 -68 2 -68 -4 -99 -17 -79 -7 11
-9 10 -9 -3 0 -10 8 -18 18 -19 14 0 14 -2 2 -7 -12 -5 -15 -27 -16 -94 -1
-51 -6 -93 -13 -102 -9 -11 -9 -15 1 -18 9 -3 9 -12 -2 -38 -9 -22 -10 -35 -3
-37 13 -5 5 -51 -15 -81 -9 -14 -12 -26 -6 -30 5 -4 8 -18 6 -32 -3 -14 -4
-47 -4 -75 0 -36 -2 -44 -8 -30 -10 25 -11 22 -15 -37 -2 -30 1 -48 8 -48 7 0
7 -4 -1 -12 -7 -7 -12 -27 -12 -45 0 -18 -5 -33 -11 -33 -7 0 -9 -11 -5 -30 4
-23 2 -30 -10 -30 -8 0 -13 -4 -10 -9 12 -18 16 -100 6 -106 -14 -8 -13 -45 1
-45 8 0 8 -4 0 -14 -18 -22 -33 -649 -16 -676 3 -6 8 -47 11 -93 6 -104 14
-157 24 -157 4 0 10 -25 14 -56 8 -74 58 -162 126 -222 14 -12 32 -29 41 -37
9 -8 21 -15 27 -15 7 0 12 -5 12 -11 0 -6 7 -9 15 -5 8 3 15 1 15 -4 0 -15 37
-12 54 5 8 8 24 15 35 15 11 0 23 5 27 11 3 6 19 9 35 7 16 -3 29 -2 29 1 0 3
9 17 20 31 16 20 19 21 14 5 -6 -17 -3 -16 22 6 16 15 37 25 46 24 10 -2 18 1
18 6 0 6 4 8 9 5 8 -5 50 5 96 24 11 4 58 16 105 26 47 9 97 23 112 31 15 7
45 13 68 13 23 0 40 5 40 11 0 8 4 8 14 0 8 -7 17 -8 20 -3 3 5 31 12 63 16
32 4 72 10 88 12 52 7 168 15 228 16 46 0 57 4 57 17 0 9 3 12 8 6 10 -14 42
-18 42 -5 0 6 3 9 8 6 4 -2 41 0 82 6 41 5 127 12 190 14 63 2 117 4 120 5 3
1 10 3 15 3 6 1 25 8 43 15 23 10 36 11 44 3 7 -7 20 -6 44 4 19 8 34 10 34 5
0 -6 10 -7 23 -4 12 3 49 6 82 7 33 1 66 5 73 10 7 4 22 4 35 1 14 -4 18 -3 9
3 -8 5 13 8 57 8 38 -1 64 -4 57 -8 -7 -5 -5 -8 7 -8 9 0 17 5 17 11 0 6 9 8
20 4 13 -4 20 -2 20 7 0 10 13 12 46 9 26 -2 44 1 41 5 -3 5 36 9 86 9 51 0
117 3 147 7 30 4 74 9 98 11 23 2 45 7 48 10 3 3 19 1 35 -3 17 -5 29 -5 29 1
0 5 23 6 55 3 41 -5 55 -4 55 6 0 10 3 10 15 0 13 -11 20 -11 40 0 17 9 46 11
101 7 52 -5 81 -3 91 5 10 8 19 8 38 -2 20 -11 26 -10 40 4 18 18 35 21 35 6
0 -6 9 -6 26 0 32 13 37 12 29 0 -3 -5 1 -10 9 -10 9 0 16 4 16 9 0 5 9 7 20
4 11 -3 39 -1 63 5 23 6 65 7 95 3 41 -6 52 -5 48 5 -3 8 0 11 9 7 8 -3 12 -9
9 -14 -3 -5 2 -9 11 -9 10 0 13 5 9 12 -5 7 -2 9 8 5 9 -3 20 -1 25 4 5 5 21
5 40 0 34 -10 113 -3 113 9 0 4 23 3 50 -1 36 -6 65 -3 102 8 29 8 67 13 85
10 18 -3 33 -2 33 3 0 6 10 6 25 0 16 -6 25 -6 25 1 0 5 15 9 33 8 17 0 54 2
80 6 37 6 51 5 58 -6 6 -10 9 -10 9 -1 0 7 14 12 35 12 21 0 35 -5 35 -12 0
-10 2 -10 9 0 6 10 33 14 94 14 50 -1 89 4 93 10 4 7 45 8 122 3 70 -4 112 -4
109 2 -6 10 26 13 135 14 38 1 66 5 63 9 -3 5 25 7 62 6 49 -3 60 -1 38 5 -22
6 -10 7 43 6 53 -2 72 1 72 10 0 7 5 13 11 13 5 0 7 -4 4 -10 -3 -5 -1 -10 4
-10 6 0 11 5 11 11 0 7 9 9 23 5 48 -15 69 -17 62 -6 -3 5 -1 10 4 10 6 0 11
-4 11 -10 0 -5 5 -10 11 -10 5 0 8 4 5 9 -9 13 146 20 163 7 12 -9 13 -8 6 3
-6 11 -4 13 8 8 9 -3 19 -2 23 4 4 6 11 6 20 -2 8 -7 21 -8 31 -3 10 4 52 8
94 9 45 0 82 5 91 12 10 9 62 14 156 15 118 3 142 6 142 18 0 9 3 11 8 5 4 -5
39 -11 77 -12 48 -1 59 1 35 6 -52 10 -17 18 67 15 48 -1 71 2 66 9 -4 7 15 8
60 4 41 -4 69 -2 73 4 9 14 67 7 82 -11 10 -13 11 -13 6 3 -3 9 -1 17 5 17 6
0 11 -5 11 -11 0 -7 10 -5 26 6 16 10 35 14 49 11 13 -3 35 -2 49 4 14 5 26 6
26 1 0 -9 90 -8 106 1 16 9 95 8 89 -1 -3 -6 6 -6 25 -1 18 5 30 5 30 -1 0 -5
7 -9 16 -9 14 0 14 3 3 16 -11 14 -9 15 27 9 21 -4 46 -9 56 -11 9 -3 19 0 23
6 3 5 28 10 55 10 27 0 52 5 56 11 4 7 39 10 104 6 80 -3 97 -2 93 9 -3 8 0
14 6 14 6 0 11 -8 11 -17 0 -10 4 -14 8 -8 7 10 38 13 145 15 26 1 47 6 47 11
0 6 5 7 12 3 16 -10 79 -6 93 6 6 5 55 7 109 4 55 -2 103 0 110 5 16 13 216
24 216 11 0 -18 18 -10 23 11 4 16 9 19 23 11 11 -6 30 -6 51 0 53 14 107 17
120 6 14 -11 116 -1 109 11 -3 4 20 4 50 1 30 -3 57 -3 60 2 3 4 25 5 50 2 32
-4 44 -2 39 6 -3 5 -10 8 -15 5 -5 -3 -11 -2 -13 2 -3 5 55 8 128 9 104 1 137
4 155 17 17 12 28 13 42 6 10 -5 24 -7 30 -3 8 5 5 10 -8 15 -11 5 1 6 26 2
25 -3 56 -6 70 -5 14 1 55 2 93 3 63 1 89 12 50 22 -16 4 -16 5 1 6 10 0 25
-7 32 -16 7 -10 14 -13 14 -8 0 11 56 12 67 2 3 -4 13 -7 22 -7 14 0 14 2 1
10 -17 11 -24 10 113 15 49 2 94 9 102 15 7 6 28 10 46 10 29 -1 56 2 129 14
9 1 21 5 28 10 6 4 12 3 12 -3 0 -5 9 -9 20 -8 11 1 20 5 20 10 0 5 11 7 25 5
13 -3 26 -1 28 5 2 6 26 13 54 17 29 3 50 3 47 -1 -2 -4 4 -10 13 -13 9 -4 20
-2 23 5 5 7 22 9 49 4 27 -4 41 -3 41 4 0 6 8 11 18 11 15 0 15 -2 2 -11 -11
-8 -9 -9 10 -3 14 4 30 7 35 6 105 -9 165 -8 165 4 0 11 5 11 24 3 19 -9 35
-8 72 5 26 9 67 16 90 16 24 0 49 6 56 13 9 10 22 12 52 5 22 -5 42 -5 45 -1
8 11 101 10 101 -1 0 -5 8 -2 18 7 10 10 22 14 25 10 4 -3 7 1 7 11 0 14 3 15
21 5 14 -7 24 -7 28 -1 3 5 32 8 64 7 31 -2 57 1 57 5 0 5 9 6 20 3 12 -3 20
0 20 7 0 8 19 11 65 8 42 -2 68 1 77 10 9 9 9 12 -4 12 -9 0 -19 7 -22 16 -5
13 -1 15 21 9 16 -3 31 -12 35 -19 4 -8 19 -11 39 -8 29 4 31 7 26 39 -3 18
-2 31 3 28 4 -3 11 1 14 7 5 10 7 10 12 1 4 -9 11 -10 24 -3 19 10 21 25 21
142 0 25 -5 56 -11 69 -7 12 -14 36 -17 53 -3 17 -8 36 -13 41 -4 6 -11 48
-14 95 -6 95 -11 149 -21 252 -7 71 -16 281 -19 450 0 49 -5 88 -9 88 -5 0 -5
5 -1 12 4 6 9 187 10 402 2 215 6 519 10 676 3 157 7 340 8 407 0 68 4 123 8
123 5 0 8 64 7 143 -2 287 6 592 15 598 5 4 5 13 1 20 -12 18 -17 169 -7 169
5 0 8 61 7 135 -1 75 1 137 4 140 7 4 5 90 -2 130 -3 11 -2 23 0 28 2 4 6 78
8 165 8 271 18 457 25 457 1 0 8 81 11 130 0 6 -2 22 -4 38 -2 15 -1 27 3 27
3 0 5 70 4 155 -2 92 1 155 7 155 5 0 9 5 9 11 0 5 -4 7 -10 4 -10 -6 -9 41 1
60 14 27 -9 688 -25 713 -2 4 -8 48 -11 97 -8 113 -12 146 -23 214 -5 30 -7
76 -5 104 3 32 1 47 -5 43 -6 -4 -12 20 -16 61 -3 38 -7 84 -11 103 -3 19 -7
49 -9 65 -2 17 -5 30 -6 30 -1 0 -3 9 -4 20 -8 56 -19 112 -27 127 -6 11 -5
18 4 22 9 5 9 7 0 12 -7 3 -13 19 -13 35 0 16 -6 45 -14 64 -9 21 -12 49 -9
71 4 25 3 35 -5 30 -7 -4 -15 15 -22 51 -10 53 -19 85 -67 253 -9 30 -20 60
-25 67 -5 6 -6 24 -3 40 4 21 3 23 -3 8 -8 -17 -12 -11 -27 38 -10 31 -23 57
-28 57 -5 0 -7 6 -4 14 3 7 -5 35 -19 62 -13 26 -24 53 -24 60 0 6 -7 14 -15
18 -9 3 -12 12 -8 22 4 12 3 15 -6 10 -9 -6 -10 -1 -5 18 6 24 -1 31 -28 27
-4 0 -10 15 -14 34 -3 20 -11 35 -18 34 -18 -2 -56 13 -56 22 0 5 12 4 28 -1
26 -10 26 -9 7 6 -12 9 -31 13 -47 10 -23 -5 -28 -2 -28 15 0 11 4 17 10 14 5
-3 7 0 4 8 -2 7 -11 14 -18 14 -8 0 -12 -6 -9 -12 6 -16 -37 -27 -54 -14 -6 6
-17 8 -23 4 -6 -4 -22 0 -35 9 -27 18 -49 21 -40 6 7 -12 -17 -9 -26 3 -3 4
-8 4 -12 1z m-352 -114 c3 -6 -1 -7 -9 -4 -18 7 -21 14 -7 14 6 0 13 -4 16
-10z m-665 -140 c0 -5 -5 -10 -11 -10 -5 0 -7 5 -4 10 3 6 8 10 11 10 2 0 4
-4 4 -10z m-180 -40 c0 -5 -4 -10 -10 -10 -5 0 -10 5 -10 10 0 6 5 10 10 10 6
0 10 -4 10 -10z m-1153 -186 c-3 -3 -12 -4 -19 -1 -8 3 -5 6 6 6 11 1 17 -2
13 -5z m-227 -38 c0 -2 -9 -6 -20 -9 -11 -3 -18 -1 -14 4 5 9 34 13 34 5z
m-3830 -420 c0 -11 -19 -15 -25 -6 -3 5 1 10 9 10 9 0 16 -2 16 -4z m-405 -66
c-3 -5 -11 -10 -16 -10 -6 0 -7 5 -4 10 3 6 11 10 16 10 6 0 7 -4 4 -10z
m4472 -6 c-3 -3 -12 -4 -19 -1 -8 3 -5 6 6 6 11 1 17 -2 13 -5z m-4953 -85
c-8 -13 -21 -11 -27 5 -4 10 0 12 14 9 10 -3 16 -9 13 -14z m3496 -83 c0 -2
-7 -7 -16 -10 -8 -3 -12 -2 -9 4 6 10 25 14 25 6z m-410 -20 c0 -3 -4 -8 -10
-11 -5 -3 -10 -1 -10 4 0 6 5 11 10 11 6 0 10 -2 10 -4z m-756 -71 c-4 -8 -11
-12 -16 -9 -6 4 -5 10 3 15 19 12 19 11 13 -6z m-244 -15 c0 -5 -9 -10 -20
-10 -11 0 -20 5 -20 10 0 6 9 10 20 10 11 0 20 -4 20 -10z m-1956 -298 c3 -5
-1 -9 -9 -9 -8 0 -12 4 -9 9 3 4 7 8 9 8 2 0 6 -4 9 -8z m-144 -32 c0 -5 -4
-10 -10 -10 -5 0 -10 5 -10 10 0 6 5 10 10 10 6 0 10 -4 10 -10z m-1633 -56
c-3 -3 -12 -4 -19 -1 -8 3 -5 6 6 6 11 1 17 -2 13 -5z m310 -40 c-3 -3 -12 -4
-19 -1 -8 3 -5 6 6 6 11 1 17 -2 13 -5z m-1770 -1866 c-3 -8 -6 -5 -6 6 -1 11
2 17 5 13 3 -3 4 -12 1 -19z m380 -1060 c-3 -8 -6 -5 -6 6 -1 11 2 17 5 13 3
-3 4 -12 1 -19z m-470 -590 c-3 -8 -6 -5 -6 6 -1 11 2 17 5 13 3 -3 4 -12 1
-19z m10729 -2445 c-10 -10 -19 5 -10 18 6 11 8 11 12 0 2 -7 1 -15 -2 -18z
m-14 -38 c0 -5 -5 -11 -10 -13 -5 -1 -9 4 -9 13 0 9 4 14 9 13 5 -2 10 -8 10
-13z m-152 -4 c0 12 2 12 9 0 5 -8 16 -11 25 -8 9 4 16 2 16 -3 0 -5 -27 -8
-59 -7 -50 1 -56 3 -37 12 13 8 25 8 34 2 8 -6 12 -5 12 4z m-490 -66 c-7 -9
-15 -13 -17 -11 -6 6 20 36 26 30 2 -2 -2 -10 -9 -19z m-786 -85 c3 -3 -15 -5
-39 -5 -25 1 -47 4 -50 6 -3 3 15 5 39 5 24 -1 47 -3 50 -6z m-607 -66 c-3 -3
-12 -4 -19 -1 -8 3 -5 6 6 6 11 1 17 -2 13 -5z m-2807 -224 c0 -5 -5 -10 -11
-10 -5 0 -7 5 -4 10 3 6 8 10 11 10 2 0 4 -4 4 -10z m4475 -100 c-3 -5 -13
-10 -21 -10 -8 0 -14 5 -14 10 0 6 9 10 21 10 11 0 17 -4 14 -10z m-125 -14
c0 -2 -7 -6 -15 -10 -8 -3 -15 -1 -15 4 0 6 7 10 15 10 8 0 15 -2 15 -4z
m-1463 -132 c-3 -3 -12 -4 -19 -1 -8 3 -5 6 6 6 11 1 17 -2 13 -5z m-6317 -14
c15 -4 -2 -6 -45 -4 -46 2 -72 -1 -77 -9 -5 -8 -8 -6 -8 6 0 14 9 17 53 16 28
-1 63 -4 77 -9z m5877 -36 c-3 -3 -12 -4 -19 -1 -8 3 -5 6 6 6 11 1 17 -2 13
-5z m-497 -34 c0 -5 -4 -10 -9 -10 -6 0 -13 5 -16 10 -3 6 1 10 9 10 9 0 16
-4 16 -10z m-6280 -10 c0 -5 -4 -10 -10 -10 -5 0 -10 5 -10 10 0 6 5 10 10 10
6 0 10 -4 10 -10z m5957 -6 c-3 -3 -12 -4 -19 -1 -8 3 -5 6 6 6 11 1 17 -2 13
-5z m-90 -20 c-3 -3 -12 -4 -19 -1 -8 3 -5 6 6 6 11 1 17 -2 13 -5z m-1679
-111 c-10 -2 -26 -2 -35 0 -10 3 -2 5 17 5 19 0 27 -2 18 -5z m-83 -23 c-11
-5 -31 -9 -45 -9 -23 0 -23 1 -5 9 11 5 31 9 45 9 23 0 23 -1 5 -9z m-1848
-146 c-3 -3 -12 -4 -19 -1 -8 3 -5 6 6 6 11 1 17 -2 13 -5z m-950 -50 c-3 -3
-12 -4 -19 -1 -8 3 -5 6 6 6 11 1 17 -2 13 -5z"/>
<path d="M10468 9573 c6 -2 18 -2 25 0 6 3 1 5 -13 5 -14 0 -19 -2 -12 -5z"/>
<path d="M10400 9520 c-13 -8 -12 -10 3 -10 9 0 17 5 17 10 0 12 -1 12 -20 0z"/>
<path d="M10160 9460 c0 -5 7 -7 15 -4 8 4 15 8 15 10 0 2 -7 4 -15 4 -8 0
-15 -4 -15 -10z"/>
<path d="M9268 9283 c6 -2 18 -2 25 0 6 3 1 5 -13 5 -14 0 -19 -2 -12 -5z"/>
<path d="M8730 9240 c-13 -8 -12 -10 3 -10 9 0 17 5 17 10 0 12 -1 12 -20 0z"/>
<path d="M8880 9240 c0 -13 11 -13 30 0 12 8 11 10 -7 10 -13 0 -23 -4 -23
-10z"/>
<path d="M7610 9060 c0 -5 5 -10 11 -10 5 0 7 5 4 10 -3 6 -8 10 -11 10 -2 0
-4 -4 -4 -10z"/>
<path d="M7445 9020 c3 -5 8 -10 11 -10 2 0 4 5 4 10 0 6 -5 10 -11 10 -5 0
-7 -4 -4 -10z"/>
<path d="M6658 8973 c6 -2 18 -2 25 0 6 3 1 5 -13 5 -14 0 -19 -2 -12 -5z"/>
<path d="M5990 8931 c0 -5 5 -13 10 -16 6 -3 10 -2 10 4 0 5 -4 13 -10 16 -5
3 -10 2 -10 -4z"/>
<path d="M9996 8823 c-6 -14 -5 -15 5 -6 7 7 10 15 7 18 -3 3 -9 -2 -12 -12z"/>
<path d="M4420 8710 c0 -6 7 -10 15 -10 8 0 15 2 15 4 0 2 -7 6 -15 10 -8 3
-15 1 -15 -4z"/>
<path d="M9269 8709 c-10 -6 -4 -9 19 -9 17 0 32 2 32 4 0 9 -39 13 -51 5z"/>
<path d="M1500 8549 c0 -5 5 -7 10 -4 6 3 10 8 10 11 0 2 -4 4 -10 4 -5 0 -10
-5 -10 -11z"/>
<path d="M3492 8551 c4 -13 18 -16 19 -4 0 4 -5 9 -11 12 -7 2 -11 -2 -8 -8z"/>
<path d="M8020 8531 c0 -6 4 -13 10 -16 6 -3 7 1 4 9 -7 18 -14 21 -14 7z"/>
<path d="M3355 8520 l-20 -9 20 0 c11 0 27 4 35 9 13 9 13 10 0 9 -8 0 -24 -4
-35 -9z"/>
<path d="M3115 8500 c-19 -8 -19 -9 2 -9 12 -1 25 4 28 9 7 12 -2 12 -30 0z"/>
<path d="M1300 8490 c0 -5 5 -10 10 -10 6 0 10 5 10 10 0 6 -4 10 -10 10 -5 0
-10 -4 -10 -10z"/>
<path d="M1740 8476 c0 -2 18 -6 40 -8 22 -2 40 0 40 4 0 5 -18 8 -40 8 -22 0
-40 -2 -40 -4z"/>
<path d="M1925 8460 c-16 -6 -9 -9 28 -15 26 -4 51 -5 54 -1 4 3 -5 6 -18 6
-14 0 -29 4 -34 9 -6 5 -19 5 -30 1z"/>
<path d="M2311 8434 c0 -11 3 -14 6 -6 3 7 2 16 -1 19 -3 4 -6 -2 -5 -13z"/>
<path d="M7330 8440 c8 -5 22 -10 30 -10 13 0 13 1 0 10 -8 5 -22 10 -30 10
-13 0 -13 -1 0 -10z"/>
<path d="M2265 8430 c-3 -5 3 -10 15 -10 12 0 18 5 15 10 -3 6 -10 10 -15 10
-5 0 -12 -4 -15 -10z"/>
<path d="M6983 8413 c9 -2 23 -2 30 0 6 3 -1 5 -18 5 -16 0 -22 -2 -12 -5z"/>
<path d="M6813 8393 c9 -2 23 -2 30 0 6 3 -1 5 -18 5 -16 0 -22 -2 -12 -5z"/>
<path d="M6340 8380 c-9 -6 -10 -10 -3 -10 6 0 15 5 18 10 8 12 4 12 -15 0z"/>
<path d="M5300 8279 c0 -5 5 -7 10 -4 6 3 10 8 10 11 0 2 -4 4 -10 4 -5 0 -10
-5 -10 -11z"/>
<path d="M4988 8233 c7 -3 16 -2 19 1 4 3 -2 6 -13 5 -11 0 -14 -3 -6 -6z"/>
<path d="M4108 8093 c6 -2 18 -2 25 0 6 3 1 5 -13 5 -14 0 -19 -2 -12 -5z"/>
<path d="M450 8064 c0 -8 5 -12 10 -9 6 4 8 11 5 16 -9 14 -15 11 -15 -7z"/>
<path d="M442 7955 c0 -16 2 -22 5 -12 2 9 2 23 0 30 -3 6 -5 -1 -5 -18z"/>
<path d="M3240 7966 c0 -9 30 -14 35 -6 4 6 -3 10 -14 10 -12 0 -21 -2 -21 -4z"/>
<path d="M472 7165 c0 -16 2 -22 5 -12 2 9 2 23 0 30 -3 6 -5 -1 -5 -18z"/>
<path d="M4930 7069 c-19 -10 -40 -26 -46 -34 -6 -8 -14 -11 -19 -7 -7 6 -6
-1 11 -58 3 -11 1 -20 -5 -20 -6 0 -13 -11 -17 -25 -3 -14 -10 -25 -15 -25 -4
0 -6 -9 -4 -21 4 -18 2 -19 -12 -7 -15 12 -15 11 -5 -9 7 -12 12 -33 12 -47 0
-14 4 -27 10 -31 6 -3 5 -15 -2 -30 -8 -19 -8 -35 0 -61 6 -20 8 -43 5 -52 -4
-14 -3 -14 5 -3 7 10 11 0 13 -38 2 -28 1 -51 -3 -51 -5 0 -8 -5 -8 -11 0 -5
4 -8 9 -4 6 3 13 -11 16 -32 4 -21 17 -74 30 -118 13 -44 29 -100 36 -125 7
-25 16 -49 21 -55 11 -13 10 -27 -2 -20 -15 9 -12 -8 9 -62 10 -26 16 -54 13
-62 -3 -8 0 -11 7 -7 6 4 11 2 11 -3 0 -6 -4 -11 -10 -11 -5 0 -10 -4 -10 -10
0 -5 6 -10 13 -10 8 0 12 -16 13 -46 1 -25 6 -49 12 -53 6 -4 13 -30 16 -59 3
-29 8 -57 11 -62 4 -6 1 -10 -4 -10 -6 0 -11 -7 -11 -15 0 -8 7 -15 15 -15 17
0 20 -16 4 -25 -7 -5 -5 -13 6 -26 12 -12 16 -30 13 -53 -2 -19 0 -32 4 -30 4
3 4 -5 0 -17 -8 -21 2 -88 19 -121 9 -18 38 -186 45 -263 2 -27 7 -81 11 -120
11 -123 8 -346 -6 -472 -8 -68 -17 -123 -20 -123 -6 0 -14 -67 -15 -132 -1
-21 -3 -38 -6 -38 -3 0 -5 -24 -4 -54 1 -46 -1 -55 -18 -59 -16 -5 -18 -11
-12 -41 4 -25 2 -42 -7 -53 -12 -15 -12 -16 4 -10 11 4 17 1 17 -9 0 -8 -4
-12 -10 -9 -5 3 -10 2 -10 -4 0 -5 5 -11 10 -13 6 -2 2 -13 -9 -25 -11 -11
-17 -23 -14 -26 7 -8 -7 -48 -16 -43 -4 3 -7 -18 -6 -46 0 -38 -4 -53 -18 -62
-13 -8 -20 -8 -26 3 -5 7 -13 11 -19 7 -5 -3 -12 0 -15 8 -3 8 -19 17 -36 21
-18 4 -31 13 -31 21 0 10 -6 13 -17 10 -21 -6 -37 3 -45 25 -7 17 -58 24 -58
8 0 -5 5 -9 12 -9 6 0 9 -2 6 -5 -8 -8 -58 19 -58 33 0 6 -4 12 -10 12 -5 0
-6 -7 -3 -17 4 -10 2 -14 -4 -10 -13 8 -79 19 -110 19 -13 0 -23 4 -23 9 0 5
-18 9 -40 9 -22 0 -40 -4 -40 -8 0 -12 -89 -31 -96 -21 -10 17 -45 9 -54 -13
-9 -23 -9 -23 -10 2 -1 22 -2 23 -13 9 -7 -9 -31 -19 -54 -22 -23 -4 -54 -12
-70 -18 -22 -8 -25 -12 -13 -21 12 -8 12 -9 -3 -4 -10 3 -22 6 -25 6 -4 0 0 4
8 10 8 5 11 12 8 16 -9 8 -58 -37 -58 -53 0 -7 -9 -13 -21 -13 -15 0 -19 4
-15 16 3 8 -8 2 -25 -15 -17 -17 -35 -29 -40 -25 -5 3 -9 -4 -9 -15 0 -16 -6
-21 -28 -21 -18 0 -34 -9 -46 -25 -11 -14 -25 -24 -33 -21 -7 3 -13 -1 -13
-10 0 -8 -4 -13 -9 -10 -5 3 -14 -1 -21 -9 -10 -12 -16 -13 -28 -3 -13 11 -15
10 -10 -9 6 -22 -5 -29 -35 -24 -5 1 -6 -9 -2 -21 3 -13 3 -18 -2 -13 -14 17
-36 17 -30 0 7 -16 -20 -46 -65 -73 -15 -9 -32 -29 -37 -45 -7 -19 -16 -27
-28 -25 -12 2 -18 -3 -18 -16 0 -11 -5 -21 -12 -23 -7 -3 -9 -11 -6 -19 3 -9
-1 -14 -12 -14 -12 0 -15 -5 -10 -20 5 -15 2 -20 -14 -20 -15 0 -22 -9 -27
-37 -9 -50 -13 -56 -30 -42 -8 6 -17 9 -21 6 -3 -4 2 -9 11 -13 9 -3 16 -13
16 -21 0 -8 -4 -11 -10 -8 -5 3 -10 -1 -10 -9 0 -8 -8 -21 -17 -28 -10 -7 -19
-28 -20 -47 -1 -18 -7 -37 -15 -42 -7 -5 -14 -21 -15 -36 -1 -15 -7 -29 -13
-31 -5 -2 -10 -22 -11 -45 0 -23 -3 -36 -6 -29 -7 17 -23 15 -23 -3 0 -8 5
-15 10 -15 6 0 8 -11 4 -25 -20 -80 -20 -196 0 -236 9 -18 16 -38 16 -46 0 -7
3 -13 8 -13 4 0 15 -20 25 -45 11 -25 22 -45 26 -45 4 0 22 -20 40 -45 40 -56
61 -76 70 -70 5 2 13 -7 19 -20 7 -14 18 -25 25 -25 18 0 75 -28 82 -41 4 -5
11 -7 16 -4 5 4 9 1 9 -5 0 -6 10 -10 23 -9 12 2 27 0 33 -3 25 -16 170 -17
246 -2 43 9 91 13 105 9 15 -3 29 -2 33 5 3 6 22 11 42 12 25 1 35 6 34 16 -1
9 13 19 33 24 19 5 40 17 47 25 6 9 18 14 27 10 9 -3 18 0 21 9 3 8 9 13 13
12 4 -1 28 8 52 20 24 12 48 19 52 16 5 -3 6 3 2 12 -5 14 -2 16 15 12 13 -4
22 -1 22 5 1 20 78 49 115 45 27 -3 35 0 35 12 0 9 3 11 8 5 4 -5 27 -11 52
-12 33 -2 41 0 30 8 -12 7 -8 9 15 8 46 -3 67 0 61 9 -3 5 3 8 12 8 48 0 73 5
68 13 -3 5 5 16 19 25 14 9 25 12 25 6 0 -5 5 -10 11 -10 5 0 8 4 5 9 -9 13
21 33 49 33 14 0 25 5 25 10 0 6 7 7 16 4 14 -5 15 -4 5 7 -9 12 -6 16 19 20
16 4 30 12 30 19 1 19 59 80 70 73 6 -3 10 6 10 20 0 14 4 24 9 20 5 -3 12 3
16 14 3 11 16 26 29 34 24 16 40 59 45 127 1 12 3 13 10 1 14 -23 28 74 26
180 -1 53 -5 100 -8 106 -9 14 3 54 14 47 5 -3 9 -1 9 5 0 6 6 8 13 6 16 -7
64 35 76 66 7 17 10 19 10 7 1 -10 5 -18 9 -18 5 0 7 14 4 30 -4 26 -2 29 14
23 16 -6 17 -4 6 9 -13 17 -14 158 0 158 4 0 8 5 8 11 0 5 -5 7 -12 3 -8 -5
-9 0 -5 17 4 13 7 29 7 34 0 6 4 4 8 -3 5 -7 8 7 7 34 -2 29 5 61 18 87 11 23
21 63 23 89 1 26 5 52 9 58 3 6 3 24 0 41 -4 18 -3 29 1 26 5 -3 10 16 11 41
0 26 2 55 2 65 1 10 6 15 11 12 6 -4 10 9 11 32 0 43 7 146 12 183 2 14 -1 33
-5 43 -6 12 -4 19 6 23 9 3 13 19 12 45 0 21 4 41 9 43 6 3 4 8 -3 14 -11 7
-13 40 -10 150 1 77 1 139 -2 137 -3 -2 -5 62 -5 141 0 79 -4 145 -8 147 -4 1
-9 47 -10 102 -1 55 -5 102 -8 105 -4 3 -10 34 -13 70 -4 43 -3 58 3 45 8 -17
10 -15 10 13 1 18 6 33 14 33 49 5 124 3 120 -4 -2 -4 8 -4 24 0 15 4 65 7
111 7 45 -1 82 3 82 8 0 4 5 8 11 8 5 0 7 -5 3 -12 -7 -11 8 -5 34 15 17 13
84 17 99 5 9 -7 18 -5 28 6 9 9 26 16 38 16 12 0 40 7 62 14 26 9 42 11 46 4
4 -6 9 -5 12 3 4 10 6 11 6 1 1 -9 9 -9 37 3 20 8 45 15 56 15 13 0 18 5 15
14 -3 8 8 19 29 29 29 14 34 15 34 2 0 -8 7 -15 15 -15 8 0 15 7 15 15 0 8 -4
15 -10 15 -5 0 -10 5 -10 11 0 6 9 8 21 4 18 -6 20 -4 14 17 -8 23 -8 23 14 4
21 -19 26 -14 22 22 -1 6 4 12 12 12 7 0 27 15 43 33 16 17 35 32 42 33 30 2
34 5 29 19 -4 8 -2 17 3 20 6 4 10 -2 10 -12 1 -17 1 -17 11 0 10 18 3 78 -11
87 -15 10 -100 144 -100 158 0 8 -18 36 -41 63 -38 45 -44 49 -85 49 -42 0
-59 12 -31 23 7 4 6 6 -5 6 -26 1 -48 -10 -48 -24 0 -18 -30 -27 -46 -14 -10
8 -20 4 -43 -21 -24 -26 -34 -31 -55 -26 -21 5 -26 3 -26 -11 0 -14 -2 -15 -9
-4 -5 7 -14 10 -20 7 -6 -4 -9 -12 -6 -17 4 -5 -1 -9 -9 -9 -8 0 -17 4 -21 10
-3 5 -12 7 -20 3 -8 -3 -15 0 -15 7 0 6 -5 8 -12 3 -7 -4 -19 -8 -27 -10 -8
-1 -17 -6 -20 -11 -8 -12 -44 -12 -52 1 -4 6 -14 5 -25 -3 -16 -9 -16 -11 -2
-6 19 6 34 -9 18 -19 -5 -3 -24 2 -41 11 -26 13 -33 14 -40 2 -8 -11 -10 -11
-18 0 -7 11 -9 10 -15 -3 -3 -9 -10 -14 -15 -10 -5 3 -12 1 -16 -4 -4 -7 -15
-7 -31 -1 -14 6 -31 10 -37 9 -7 0 -4 -4 5 -7 14 -6 10 -9 -17 -18 -19 -6 -32
-7 -29 -3 10 17 -30 26 -74 16 -33 -7 -47 -6 -50 2 -2 6 -10 11 -17 11 -15 0
-95 108 -95 127 0 7 -4 13 -10 13 -5 0 -10 8 -10 18 -1 9 -9 35 -20 57 -13 27
-19 62 -20 108 0 43 -4 66 -10 62 -10 -6 -15 20 -11 67 1 14 -3 29 -8 33 -15
9 -14 48 2 64 10 12 9 13 -7 7 -17 -6 -18 -3 -12 34 4 24 2 49 -5 62 -8 14 -8
18 0 14 15 -10 13 5 -3 26 -7 10 -16 15 -19 12 -3 -3 -3 3 0 15 3 12 1 21 -6
21 -6 0 -11 7 -11 16 0 30 -42 102 -87 149 -23 25 -43 50 -43 55 0 13 -73 7
-88 -7 -9 -9 -18 -8 -40 3 -34 18 -58 16 -102 -7z m-20 -40 c-7 -11 -14 -18
-17 -15 -3 3 0 12 7 21 18 21 23 19 10 -6z m637 -2741 c-3 -8 -6 -5 -6 6 -1
11 2 17 5 13 3 -3 4 -12 1 -19z"/>
<path d="M4826 6954 c-8 -21 -8 -24 3 -24 5 0 11 9 14 20 6 24 -8 27 -17 4z"/>
<path d="M502 6530 c0 -14 2 -19 5 -12 2 6 2 18 0 25 -3 6 -5 1 -5 -13z"/>
<path d="M6295 6261 c-6 -11 9 -23 19 -14 9 9 7 23 -3 23 -6 0 -12 -4 -16 -9z"/>
<path d="M6140 6221 c0 -6 4 -13 10 -16 6 -3 7 1 4 9 -7 18 -14 21 -14 7z"/>
<path d="M5672 6118 c6 -18 28 -21 28 -4 0 9 -7 16 -16 16 -9 0 -14 -5 -12
-12z"/>
<path d="M11161 6013 c-1 -17 4 -35 9 -38 11 -7 11 9 0 45 -8 24 -8 24 -9 -7z"/>
<path d="M470 5395 c0 -8 5 -15 10 -15 6 0 10 7 10 15 0 8 -4 15 -10 15 -5 0
-10 -7 -10 -15z"/>
<path d="M11135 5120 c-3 -5 -1 -10 4 -10 6 0 11 5 11 10 0 6 -2 10 -4 10 -3
0 -8 -4 -11 -10z"/>
<path d="M461 5084 c0 -11 3 -14 6 -6 3 7 2 16 -1 19 -3 4 -6 -2 -5 -13z"/>
<path d="M5141 4954 c0 -11 3 -14 6 -6 3 7 2 16 -1 19 -3 4 -6 -2 -5 -13z"/>
<path d="M442 4735 c0 -16 2 -22 5 -12 2 9 2 23 0 30 -3 6 -5 -1 -5 -18z"/>
<path d="M5591 4724 c0 -11 3 -14 6 -6 3 7 2 16 -1 19 -3 4 -6 -2 -5 -13z"/>
<path d="M5593 4665 c0 -22 2 -30 4 -17 2 12 2 30 0 40 -3 9 -5 -1 -4 -23z"/>
<path d="M5111 4574 c0 -11 3 -14 6 -6 3 7 2 16 -1 19 -3 4 -6 -2 -5 -13z"/>
<path d="M5092 4450 c0 -14 2 -19 5 -12 2 6 2 18 0 25 -3 6 -5 1 -5 -13z"/>
<path d="M5551 4194 c0 -11 3 -14 6 -6 3 7 2 16 -1 19 -3 4 -6 -2 -5 -13z"/>
<path d="M4465 4030 c-3 -5 -1 -10 4 -10 6 0 11 5 11 10 0 6 -2 10 -4 10 -3 0
-8 -4 -11 -10z"/>
<path d="M4615 4030 c-3 -5 -1 -10 4 -10 6 0 11 5 11 10 0 6 -2 10 -4 10 -3 0
-8 -4 -11 -10z"/>
<path d="M4641 4024 c0 -11 3 -14 6 -6 3 7 2 16 -1 19 -3 4 -6 -2 -5 -13z"/>
<path d="M4995 3910 c3 -5 10 -10 16 -10 5 0 9 5 9 10 0 6 -7 10 -16 10 -8 0
-12 -4 -9 -10z"/>
<path d="M3950 3860 c0 -5 5 -10 11 -10 5 0 7 5 4 10 -3 6 -8 10 -11 10 -2 0
-4 -4 -4 -10z"/>
<path d="M3610 3576 c0 -9 5 -16 10 -16 6 0 10 4 10 9 0 6 -4 13 -10 16 -5 3
-10 -1 -10 -9z"/>
<path d="M3995 2390 c-7 -12 2 -12 30 0 19 8 19 9 -2 9 -12 1 -25 -3 -28 -9z"/>
<path d="M10590 1900 c0 -5 -1 -13 -2 -16 -2 -4 17 -8 42 -9 43 -3 44 -3 12 6
-18 5 -30 14 -27 19 4 6 -1 10 -9 10 -9 0 -16 -4 -16 -10z"/>
<path d="M10186 1851 c-16 -18 -16 -18 8 -18 23 0 43 23 31 35 -3 3 -5 -1 -5
-9 0 -11 -2 -11 -8 -1 -7 10 -12 8 -26 -7z"/>
<path d="M10080 1829 c0 -5 5 -7 10 -4 6 3 10 8 10 11 0 2 -4 4 -10 4 -5 0
-10 -5 -10 -11z"/>
<path d="M9938 1823 c12 -2 30 -2 40 0 9 3 -1 5 -23 4 -22 0 -30 -2 -17 -4z"/>
<path d="M9480 1766 c0 -2 7 -6 15 -10 8 -3 15 -1 15 4 0 6 -7 10 -15 10 -8 0
-15 -2 -15 -4z"/>
<path d="M9265 1750 c-4 -6 3 -10 14 -10 25 0 27 6 6 13 -8 4 -17 2 -20 -3z"/>
<path d="M9158 1733 c7 -3 16 -2 19 1 4 3 -2 6 -13 5 -11 0 -14 -3 -6 -6z"/>
<path d="M8445 1670 c-3 -5 3 -10 14 -10 11 0 23 5 26 10 3 6 -3 10 -14 10
-11 0 -23 -4 -26 -10z"/>
<path d="M6930 1560 c0 -5 5 -10 11 -10 5 0 7 5 4 10 -3 6 -8 10 -11 10 -2 0
-4 -4 -4 -10z"/>
<path d="M6430 1500 c0 -5 5 -10 10 -10 6 0 10 5 10 10 0 6 -4 10 -10 10 -5 0
-10 -4 -10 -10z"/>
<path d="M5868 1453 c7 -3 16 -2 19 1 4 3 -2 6 -13 5 -11 0 -14 -3 -6 -6z"/>
<path d="M5670 1440 c-12 -8 -11 -10 8 -10 12 0 22 5 22 10 0 13 -11 13 -30 0z"/>
<path d="M11260 1420 c0 -5 7 -10 16 -10 8 0 12 5 9 10 -3 6 -10 10 -16 10 -5
0 -9 -4 -9 -10z"/>
<path d="M10865 1360 c-3 -5 1 -10 10 -10 9 0 13 5 10 10 -3 6 -8 10 -10 10
-2 0 -7 -4 -10 -10z"/>
<path d="M10260 1330 c0 -5 5 -10 10 -10 6 0 10 5 10 10 0 6 -4 10 -10 10 -5
0 -10 -4 -10 -10z"/>
<path d="M10545 1330 c3 -5 8 -10 11 -10 2 0 4 5 4 10 0 6 -5 10 -11 10 -5 0
-7 -4 -4 -10z"/>
<path d="M10298 1323 c6 -2 18 -2 25 0 6 3 1 5 -13 5 -14 0 -19 -2 -12 -5z"/>
<path d="M3730 1300 c0 -5 5 -10 10 -10 6 0 10 5 10 10 0 6 -4 10 -10 10 -5 0
-10 -4 -10 -10z"/>
<path d="M3760 1300 c0 -5 5 -10 11 -10 5 0 7 5 4 10 -3 6 -8 10 -11 10 -2 0
-4 -4 -4 -10z"/>
<path d="M3845 1300 c3 -5 8 -10 11 -10 2 0 4 5 4 10 0 6 -5 10 -11 10 -5 0
-7 -4 -4 -10z"/>
<path d="M10130 1290 c0 -5 5 -10 10 -10 6 0 10 5 10 10 0 6 -4 10 -10 10 -5
0 -10 -4 -10 -10z"/>
<path d="M2131 1164 c0 -11 3 -14 6 -6 3 7 2 16 -1 19 -3 4 -6 -2 -5 -13z"/>
<path d="M8645 1169 c3 -4 -7 -9 -22 -12 -16 -2 -7 -4 20 -3 50 0 63 11 22 18
-13 3 -22 2 -20 -3z"/>
<path d="M7553 1073 c9 -2 23 -2 30 0 6 3 -1 5 -18 5 -16 0 -22 -2 -12 -5z"/>
<path d="M878 1023 c7 -3 16 -2 19 1 4 3 -2 6 -13 5 -11 0 -14 -3 -6 -6z"/>
<path d="M570 960 c0 -5 5 -10 10 -10 6 0 10 5 10 10 0 6 -4 10 -10 10 -5 0
-10 -4 -10 -10z"/>
<path d="M5570 930 c0 -5 5 -10 10 -10 6 0 10 5 10 10 0 6 -4 10 -10 10 -5 0
-10 -4 -10 -10z"/>
<path d="M4908 873 c12 -2 32 -2 45 0 12 2 2 4 -23 4 -25 0 -35 -2 -22 -4z"/>
<path d="M4338 833 c7 -3 16 -2 19 1 4 3 -2 6 -13 5 -11 0 -14 -3 -6 -6z"/>
<path d="M2075 670 c-3 -5 -1 -10 4 -10 6 0 11 5 11 10 0 6 -2 10 -4 10 -3 0
-8 -4 -11 -10z"/>
</g>
</svg>
