<?xml version="1.0" standalone="no"?>
<!DOCTYPE svg PUBLIC "-//W3C//DTD SVG 20010904//EN"
        "http://www.w3.org/TR/2001/REC-SVG-20010904/DTD/svg10.dtd">
<svg version="1.0" xmlns="http://www.w3.org/2000/svg"
     width="922.000000pt" height="829.000000pt" viewBox="0 0 922.000000 829.000000"
     preserveAspectRatio="xMidYMid meet">
    <metadata>
        Created by potrace 1.16, written by Peter Selinger 2001-2019
    </metadata>
    <g transform="translate(0.000000,829.000000) scale(0.100000,-0.100000)"
       fill="#000000" stroke="none">
        <path d="M6888 7711 c-20 -11 -37 -30 -44 -50 -5 -17 -13 -28 -17 -25 -4 4 -7
1 -7 -7 0 -8 -8 -25 -17 -39 -9 -13 -18 -45 -18 -70 -2 -54 -13 -146 -25 -215
-12 -61 -19 -132 -25 -245 -6 -118 -19 -261 -28 -320 -2 -14 -7 -68 -11 -120
-4 -52 -11 -111 -16 -130 -5 -19 -11 -69 -15 -110 -3 -41 -13 -118 -22 -170
-9 -52 -17 -108 -18 -125 -1 -16 -5 -46 -8 -65 -12 -62 -36 -224 -40 -270 -3
-24 -10 -46 -16 -48 -6 -2 -11 -8 -11 -13 0 -6 4 -8 9 -5 5 3 8 -5 7 -19 0
-14 -4 -25 -7 -25 -4 0 -7 -15 -6 -32 0 -44 -10 -115 -23 -158 -5 -19 -10 -50
-10 -69 0 -19 -5 -60 -10 -90 -18 -101 -40 -293 -34 -302 3 -5 1 -9 -3 -9 -5
0 -9 -21 -10 -47 -4 -97 -16 -193 -24 -193 -4 0 -7 -28 -7 -62 1 -35 -1 -76
-5 -93 -3 -16 -9 -69 -12 -117 -4 -49 -11 -88 -14 -88 -4 0 -6 -21 -5 -47 0
-27 -2 -59 -6 -73 -8 -25 -8 -25 -10 5 -1 17 -4 23 -7 13 -2 -9 0 -33 5 -52 6
-19 6 -36 2 -38 -5 -2 -12 -48 -15 -103 -3 -55 -7 -111 -10 -125 -7 -40 -17
-114 -18 -127 0 -7 -3 -13 -6 -13 -3 0 -7 -35 -9 -78 -1 -42 -7 -78 -12 -80
-6 -2 -10 -23 -10 -47 0 -24 -5 -47 -10 -50 -6 -4 -7 -11 -4 -17 6 -9 -9 -94
-23 -138 -3 -8 -6 -31 -7 -50 -5 -67 -30 -229 -35 -225 -4 2 -6 -11 -6 -28 -1
-52 -27 -177 -37 -171 -4 3 -8 -2 -8 -11 0 -9 4 -14 8 -11 10 6 -6 -92 -19
-117 -6 -10 -9 -35 -8 -55 0 -20 -6 -72 -15 -115 -8 -44 -15 -82 -14 -85 5
-19 -15 -141 -22 -137 -4 2 -7 -14 -7 -38 0 -23 -5 -76 -12 -117 -7 -41 -12
-85 -12 -98 1 -12 -4 -22 -10 -22 -5 0 -8 -4 -5 -8 9 -15 -57 -431 -72 -457
-3 -5 -7 -21 -9 -35 -4 -31 -11 -65 -13 -65 -1 0 -4 -26 -6 -58 -2 -33 -7 -64
-12 -70 -5 -7 -9 -24 -10 -38 -1 -15 -8 -53 -17 -85 -8 -32 -15 -68 -15 -81 0
-42 -32 -49 -165 -37 -44 3 -117 6 -162 6 -46 0 -83 3 -83 9 0 5 -25 9 -55 9
-37 0 -55 -4 -55 -12 0 -10 -2 -10 -8 -1 -12 19 -960 37 -1247 23 -45 -2 -86
0 -93 4 -7 4 -19 2 -27 -4 -12 -10 -18 -10 -30 0 -11 9 -18 10 -29 1 -8 -7
-28 -9 -46 -6 -23 4 -30 2 -24 -6 5 -9 2 -10 -12 -5 -10 4 -149 7 -309 5 -357
-3 -338 -3 -520 0 -263 4 -428 13 -414 22 9 6 10 9 2 9 -6 0 -15 -5 -18 -11
-4 -6 -19 -7 -36 -4 -16 4 -80 8 -142 10 -62 1 -119 5 -127 8 -8 3 -33 5 -55
5 -22 0 -146 1 -275 1 -129 1 -282 2 -340 2 -57 0 -106 2 -108 4 -3 2 -6 32
-9 67 -3 47 -1 59 7 48 8 -11 9 5 5 60 -4 43 -3 70 2 63 5 -7 9 11 8 46 0 37
-4 57 -10 53 -5 -3 -4 1 3 10 7 9 12 20 11 24 -1 5 0 11 1 14 1 3 4 37 6 75 3
74 19 217 29 275 5 28 4 32 -5 20 -11 -13 -11 -13 -7 0 20 64 38 203 39 298 0
23 3 42 8 42 4 0 8 25 9 56 1 31 4 62 8 67 3 6 12 65 19 131 7 67 17 151 23
188 5 37 8 88 8 113 -1 25 2 45 6 45 5 0 7 8 6 18 -1 9 1 28 4 42 9 38 21 177
21 250 0 36 4 68 8 71 5 3 10 52 12 110 2 57 7 131 10 164 4 33 9 85 11 115 7
118 15 202 26 267 5 37 16 111 24 163 8 52 18 118 23 147 5 30 5 58 0 67 -6
11 -5 16 6 16 11 0 14 13 14 53 0 48 4 89 18 175 3 18 9 30 15 27 5 -4 9 -2 9
4 0 5 -5 11 -11 13 -8 3 -7 14 5 35 10 20 12 34 6 38 -6 4 -8 11 -4 16 3 5 9
7 14 4 4 -3 6 3 3 13 -2 10 5 63 16 119 12 56 21 115 21 133 0 17 7 59 15 93
8 34 19 100 26 147 6 47 14 89 17 94 2 4 6 38 8 74 2 36 8 68 15 73 6 4 9 16
6 28 -3 12 -1 21 4 21 5 0 6 12 3 26 -5 18 -3 25 4 20 7 -4 10 2 10 16 -1 13
-1 46 0 73 2 37 5 46 12 35 7 -11 9 -1 6 33 -2 26 0 47 4 47 4 0 7 14 8 31 0
17 5 36 10 42 5 7 10 31 11 55 0 24 8 53 16 65 8 12 15 31 14 42 0 20 0 20 -9
0 -6 -13 -7 -5 -3 25 3 25 9 52 13 60 4 8 7 32 6 52 -1 20 2 34 7 31 5 -3 7 0
5 8 -3 8 0 28 7 44 6 17 11 47 11 67 -1 21 3 38 8 38 4 0 6 9 3 20 -3 11 -1
20 5 20 6 0 8 13 6 29 -2 17 -1 28 3 25 4 -2 5 13 3 33 -4 29 -3 34 5 23 9
-13 11 -13 11 2 0 9 -4 20 -10 23 -5 3 -10 14 -9 23 0 14 2 13 8 -3 7 -16 9
-14 15 17 3 20 9 60 11 90 3 29 7 69 10 88 4 26 3 31 -4 20 -9 -12 -11 -10
-11 12 0 14 4 28 9 30 4 2 11 25 13 52 4 29 2 43 -3 35 -5 -8 -6 7 -3 37 5 36
2 59 -10 82 -21 41 -22 41 22 32 20 -4 78 -13 127 -20 50 -6 101 -16 115 -21
74 -27 534 -34 776 -11 66 6 162 14 213 17 50 3 125 10 165 15 41 5 163 12
272 15 110 3 244 10 299 15 55 5 136 12 180 15 44 2 98 7 120 10 22 3 67 7
100 9 82 5 278 26 345 36 30 5 90 8 133 7 42 -1 77 1 77 4 0 3 12 6 28 6 52 1
337 24 402 33 36 5 92 10 125 10 33 0 95 7 138 15 43 8 116 15 161 15 58 0 88
5 104 16 15 10 40 15 77 13 31 -2 60 3 68 10 16 13 28 109 14 114 -5 1 -2 21
6 44 7 22 13 51 11 64 -1 13 -3 29 -3 36 -2 20 -43 53 -67 53 -13 0 -25 4 -28
9 -3 5 -14 7 -25 4 -10 -2 -26 3 -35 13 -10 10 -34 19 -54 21 -97 8 -220 9
-347 1 -77 -4 -214 -11 -305 -13 -91 -3 -181 -8 -200 -11 -56 -7 -453 -44
-640 -59 -87 -7 -183 -14 -250 -20 -376 -31 -423 -35 -525 -39 -44 -2 -131 -8
-194 -14 -63 -7 -118 -9 -122 -6 -5 3 -26 0 -46 -5 -21 -6 -81 -15 -133 -21
-52 -6 -115 -13 -140 -16 -25 -4 -97 -8 -160 -9 -63 -1 -180 -6 -259 -10 -101
-6 -142 -5 -137 3 4 7 -10 10 -40 10 -55 0 -144 21 -144 33 0 5 -12 9 -27 9
-39 -2 -67 4 -74 13 -3 5 -20 9 -37 9 -17 1 -29 5 -26 9 3 5 -2 6 -10 3 -8 -3
-21 -2 -28 2 -17 11 -35 14 -78 15 -19 1 -39 6 -43 12 -6 9 -10 9 -13 1 -3 -7
-13 -10 -24 -7 -30 8 -91 -17 -125 -51 -38 -39 -50 -104 -28 -156 7 -18 11
-35 8 -38 -2 -3 3 -11 13 -19 12 -10 12 -13 2 -8 -8 3 -6 0 4 -7 68 -46 72
-78 11 -92 -31 -7 -49 -20 -78 -57 -57 -73 -59 -84 -55 -304 1 -48 -13 -190
-20 -199 -5 -6 -9 -27 -11 -46 -1 -19 -6 -64 -12 -100 -5 -35 -12 -91 -15
-125 -3 -33 -9 -94 -15 -135 -6 -41 -12 -91 -15 -110 -2 -19 -9 -60 -14 -90
-6 -30 -12 -77 -16 -105 -3 -27 -10 -68 -15 -90 -5 -22 -12 -53 -15 -70 -3
-16 -10 -55 -16 -85 -5 -30 -11 -63 -11 -72 -1 -10 -5 -18 -10 -18 -5 0 -7 -6
-4 -14 3 -8 1 -17 -6 -20 -9 -3 -9 -5 0 -5 9 -1 8 -15 -6 -53 -11 -29 -22 -84
-26 -123 -7 -87 -13 -127 -36 -247 -8 -38 -16 -68 -19 -68 -3 0 -4 -15 -2 -32
2 -18 -2 -53 -8 -78 -15 -61 -19 -87 -26 -145 -3 -27 -10 -54 -14 -59 -5 -5
-6 -15 -3 -24 4 -9 2 -13 -4 -9 -6 4 -10 -16 -9 -54 0 -33 -4 -63 -9 -67 -6
-4 -11 -38 -13 -77 -2 -38 -8 -86 -13 -105 -5 -19 -9 -56 -9 -81 0 -25 -3 -49
-7 -52 -3 -4 -8 -55 -10 -114 -2 -60 -8 -119 -13 -133 -5 -14 -12 -54 -14 -90
-3 -36 -9 -101 -15 -145 -12 -103 -26 -259 -26 -307 0 -21 -3 -38 -7 -38 -5 0
-8 -28 -8 -63 0 -34 -4 -77 -9 -95 -7 -23 -7 -30 1 -26 8 5 9 1 4 -11 -3 -10
-9 -42 -12 -72 -2 -29 -9 -65 -14 -79 -6 -14 -8 -30 -5 -34 3 -5 1 -28 -4 -52
-5 -24 -13 -77 -16 -118 -4 -41 -9 -78 -11 -82 -2 -3 -9 -48 -15 -100 -6 -51
-12 -104 -14 -118 -2 -14 -8 -61 -14 -105 -5 -44 -14 -111 -20 -149 -5 -38 -9
-74 -8 -80 1 -6 -3 -10 -8 -9 -6 1 -9 -12 -7 -30 2 -18 -4 -95 -13 -172 -35
-288 -47 -439 -47 -572 0 -51 -3 -93 -6 -93 -14 0 -22 -230 -10 -294 6 -35 6
-37 -7 -20 -11 15 -14 16 -15 4 0 -25 17 -43 31 -35 8 6 11 4 7 -7 -4 -8 2
-22 13 -31 10 -9 19 -25 19 -34 0 -15 2 -16 10 -3 8 13 10 12 10 -2 0 -10 4
-18 10 -18 5 0 7 -6 4 -14 -3 -7 2 -16 10 -19 9 -4 16 -14 16 -22 0 -9 5 -13
10 -10 6 3 13 -1 16 -9 3 -9 10 -14 14 -11 13 8 41 -6 34 -17 -4 -6 2 -8 15
-3 27 8 150 9 158 1 3 -3 11 1 17 10 10 13 47 16 220 21 159 4 207 2 201 -7
-6 -9 -2 -9 14 -1 15 9 114 10 354 6 334 -6 360 -7 387 -18 21 -8 270 -14 270
-6 0 3 18 3 40 -1 22 -4 40 -5 40 -2 0 2 8 -2 17 -9 14 -12 16 -12 8 0 -6 11
-3 13 16 7 13 -4 76 -8 141 -9 64 -1 114 -5 111 -9 -2 -5 3 -8 11 -8 9 0 16 5
16 10 0 6 31 10 74 10 56 0 75 -4 80 -15 6 -16 41 -21 50 -6 3 4 -6 6 -19 3
-15 -2 -25 0 -25 7 0 8 37 11 130 9 71 -2 130 -7 130 -12 0 -5 7 -2 16 5 12
10 53 15 133 17 64 2 146 4 184 5 37 1 67 -1 67 -5 0 -5 7 -8 16 -8 8 0 13 4
10 8 -3 5 63 9 145 9 83 0 152 3 155 6 3 2 33 3 67 1 244 -14 473 -17 490 -7
5 3 13 -1 18 -8 6 -9 9 -10 9 -2 0 8 9 9 32 2 18 -5 42 -9 53 -8 20 0 20 0 0
10 -17 8 -16 9 7 4 14 -3 60 -5 102 -6 42 -1 76 -4 76 -8 0 -3 46 -6 103 -7
99 0 134 -4 168 -19 10 -3 20 -2 24 4 13 22 125 8 125 -15 0 -8 4 -14 10 -14
5 0 7 6 4 14 -4 11 5 13 43 9 26 -3 54 -10 61 -16 6 -5 12 -6 12 -1 0 11 340
11 357 1 6 -4 13 0 17 8 3 8 13 15 22 15 17 0 53 35 55 54 1 6 3 22 6 36 10
61 9 90 -3 90 -8 0 -11 13 -7 43 6 43 -9 44 -21 2 -3 -11 -3 -6 0 10 6 31 10
74 13 138 1 25 5 36 12 31 8 -5 9 6 5 37 -5 32 -4 40 3 29 9 -12 11 -9 12 15
1 17 1 38 0 47 -1 10 2 18 8 18 5 0 10 17 9 38 0 52 12 121 23 128 5 3 9 11 9
17 0 7 -4 6 -10 -3 -8 -13 -10 -12 -10 3 0 9 5 17 11 17 6 0 9 9 6 20 -3 11
-1 20 5 20 6 0 7 7 4 16 -4 9 -1 23 5 30 7 8 9 31 6 54 -3 22 -1 40 4 40 5 0
9 13 9 29 0 16 4 41 10 55 5 14 12 48 15 76 3 27 7 73 10 102 3 28 9 56 13 62
3 6 5 21 4 33 -2 12 1 39 7 60 5 21 13 71 16 111 3 41 10 82 15 92 5 9 7 20 4
22 -2 3 7 86 22 184 14 99 28 192 30 208 2 17 7 32 12 35 4 3 8 31 9 60 2 30
7 69 13 85 8 27 11 66 11 171 0 10 5 25 10 31 6 7 8 28 6 46 -2 18 2 49 10 68
8 19 16 53 17 75 1 22 4 45 8 50 8 14 23 126 20 153 -2 12 2 22 9 22 6 0 8 7
5 16 -3 9 -2 33 3 53 6 20 12 59 15 86 2 28 12 97 20 155 9 58 18 119 21 135
2 17 7 57 10 90 9 88 27 189 37 200 4 5 8 38 8 75 0 36 5 97 11 135 6 39 12
97 14 130 2 33 6 76 9 96 4 20 8 56 11 80 3 42 11 95 21 149 3 14 7 41 9 60 3
19 11 74 18 123 7 48 10 87 6 87 -10 0 -2 42 9 49 4 3 9 44 10 90 1 53 6 87
13 92 7 4 9 17 6 29 -3 12 -2 33 4 47 5 13 11 63 14 111 4 48 9 94 12 102 4 8
7 31 8 50 1 19 7 69 15 110 7 41 13 91 15 110 1 19 6 43 10 53 4 9 4 24 1 33
-4 9 -1 23 5 30 6 8 8 25 5 40 -4 14 -3 24 1 21 4 -3 9 15 10 39 1 24 7 53 14
65 6 12 11 48 11 80 0 33 4 59 9 59 5 0 9 25 9 55 0 30 3 55 8 55 7 0 11 39
14 147 1 34 5 60 8 58 4 -2 7 8 7 23 1 49 23 234 29 244 3 5 7 48 8 96 2 48 8
104 15 125 7 21 11 54 9 72 -2 18 -1 32 3 29 11 -6 17 78 8 104 -5 13 -5 22 1
22 6 0 10 14 10 31 0 25 -3 30 -17 25 -10 -4 -14 -4 -11 0 4 3 -2 16 -13 28
-35 36 -46 73 -24 79 6 1 11 -13 13 -30 2 -18 7 -33 12 -33 9 0 7 22 -5 85 -4
19 -85 75 -85 59 0 -3 -6 -2 -12 4 -7 6 -31 13 -53 17 -22 4 -45 11 -50 16
-22 17 -65 17 -97 0z m116 -40 c-2 -3 -12 3 -22 13 -16 17 -16 18 5 5 12 -7
20 -15 17 -18z m66 -16 c8 -9 8 -15 2 -15 -18 0 -42 12 -42 21 0 14 26 10 40
-6z m60 -5 c0 -5 -9 -10 -21 -10 -11 0 -17 5 -14 10 3 6 13 10 21 10 8 0 14
-4 14 -10z m-4903 -692 c-3 -8 -6 -5 -6 6 -1 11 2 17 5 13 3 -3 4 -12 1 -19z
m-600 -4435 c-3 -10 -5 -4 -5 12 0 17 2 24 5 18 2 -7 2 -21 0 -30z"/>
        <path d="M5525 5801 c-3 -6 -11 -8 -17 -5 -6 4 -8 3 -5 -3 3 -5 -8 -18 -26
-28 -18 -10 -45 -33 -61 -49 -154 -166 -206 -210 -206 -176 0 6 -6 10 -14 10
-7 0 -19 7 -26 14 -15 19 -91 56 -113 56 -9 0 -17 4 -17 9 0 11 -162 2 -174
-10 -6 -5 -18 -9 -28 -9 -10 0 -18 -4 -18 -10 0 -5 -8 -10 -19 -10 -10 0 -43
-11 -74 -24 -30 -14 -57 -23 -60 -20 -2 3 -21 -4 -41 -16 -50 -27 -126 -28
-144 0 -7 11 -21 20 -32 20 -11 0 -20 5 -20 10 0 6 -9 10 -21 10 -12 0 -17 4
-13 11 4 8 0 9 -15 4 -11 -3 -21 -3 -21 2 0 11 -79 35 -91 28 -5 -4 -15 -3
-21 2 -7 4 -49 9 -93 10 -59 2 -75 0 -60 -7 16 -9 14 -9 -13 -5 -23 3 -31 1
-26 -7 5 -7 0 -9 -14 -6 -12 4 -22 2 -22 -3 0 -5 -5 -9 -11 -9 -19 0 -129 -54
-129 -63 0 -4 -4 -5 -10 -2 -5 3 -10 2 -10 -3 0 -5 -13 -12 -29 -15 -16 -3
-36 -13 -45 -22 -9 -9 -20 -13 -26 -10 -6 3 -13 0 -16 -8 -3 -9 -17 -18 -32
-22 -15 -4 -43 -16 -62 -28 -37 -23 -177 -76 -222 -84 -35 -7 -95 14 -103 35
-5 14 -8 14 -15 2 -7 -11 -16 -6 -46 26 -20 21 -34 31 -31 22 7 -21 -8 -24
-20 -4 -10 17 -99 31 -108 16 -3 -5 -15 -10 -26 -10 -10 0 -19 -5 -19 -11 0
-6 -7 -9 -15 -5 -9 3 -15 0 -15 -10 0 -8 -10 -19 -22 -24 -13 -5 -36 -25 -53
-46 -60 -73 -124 -122 -139 -107 -3 4 -6 1 -6 -6 0 -7 -7 -10 -18 -7 -12 4
-31 -5 -55 -26 -64 -56 -61 -155 8 -248 14 -19 25 -30 25 -26 0 4 17 -6 38
-23 20 -18 42 -36 49 -41 7 -6 20 -10 31 -10 10 0 23 -5 28 -10 14 -14 113
-18 122 -5 4 6 22 21 40 34 19 13 58 48 87 77 29 30 56 54 60 54 7 0 32 -12
128 -62 59 -31 176 -31 236 0 23 12 47 22 54 22 7 1 30 9 52 20 22 11 45 19
52 20 7 0 32 13 56 29 64 44 209 115 229 114 10 -1 18 2 18 6 0 20 188 74 228
65 49 -10 121 -49 128 -68 5 -15 8 -16 16 -5 7 11 11 11 15 2 7 -18 140 -56
191 -55 42 1 168 41 260 83 23 11 73 26 110 34 65 14 67 13 84 -8 10 -12 18
-28 18 -34 0 -7 7 -13 15 -13 8 0 15 -5 15 -12 0 -6 3 -9 6 -5 3 3 16 -5 28
-18 15 -17 41 -28 90 -38 67 -13 70 -13 120 12 27 14 68 43 90 64 56 53 70 50
61 -13 -5 -33 -3 -50 4 -50 6 0 8 -6 5 -14 -9 -24 129 -106 180 -106 31 0 63
25 82 65 9 19 20 35 25 35 5 0 9 11 9 25 0 14 7 37 16 50 9 14 13 25 9 25 -4
0 -3 6 3 13 7 8 10 78 8 197 -3 191 -7 226 -23 223 -6 -1 -9 9 -7 23 1 17 -5
30 -22 40 -13 9 -21 21 -17 28 3 6 3 8 -1 4 -4 -3 -21 6 -38 20 -16 15 -53 40
-81 55 -29 16 -56 33 -62 37 -18 15 -82 22 -90 11z"/>
        <path d="M1651 5594 c0 -11 3 -14 6 -6 3 7 2 16 -1 19 -3 4 -6 -2 -5 -13z"/>
        <path d="M3255 4940 c-3 -5 -1 -10 4 -10 6 0 11 5 11 10 0 6 -2 10 -4 10 -3 0
-8 -4 -11 -10z"/>
        <path d="M6431 4834 c0 -11 3 -14 6 -6 3 7 2 16 -1 19 -3 4 -6 -2 -5 -13z"/>
        <path d="M3852 4563 c-12 -3 -20 -8 -18 -12 3 -4 -10 -5 -27 -3 -22 2 -52 -6
-92 -27 -33 -17 -65 -31 -72 -31 -7 0 -13 -3 -13 -8 0 -4 -17 -16 -37 -26 -21
-10 -47 -23 -58 -29 -86 -45 -111 -60 -128 -75 -11 -9 -22 -16 -26 -16 -11 2
-51 -19 -51 -28 0 -4 -5 -8 -10 -8 -6 0 -50 -29 -98 -65 -85 -63 -112 -76
-112 -54 0 5 -4 8 -9 4 -6 -3 -14 3 -20 12 -5 10 -13 15 -17 11 -4 -5 -13 -3
-21 3 -7 6 -13 8 -13 3 0 -4 -6 0 -13 10 -10 14 -31 18 -100 21 -48 2 -87 0
-87 -5 0 -5 -10 -12 -22 -16 -40 -12 -141 -91 -188 -146 -25 -29 -82 -91 -128
-137 -46 -47 -90 -101 -99 -121 -16 -39 -12 -122 8 -146 6 -8 8 -14 3 -14 -4
0 2 -11 15 -23 14 -16 19 -31 15 -43 -3 -12 -3 -14 3 -7 6 8 13 8 26 -2 16
-11 16 -14 3 -17 -11 -2 -13 -7 -6 -18 9 -13 11 -13 19 0 9 12 14 11 34 -8 13
-12 31 -22 41 -22 15 0 16 -3 6 -15 -8 -9 -9 -15 -2 -15 6 0 14 4 17 10 4 6
13 5 24 -2 15 -9 29 -8 67 7 57 21 75 37 99 85 10 19 21 37 24 40 4 3 14 14
22 26 34 51 123 144 136 144 8 0 27 -12 43 -27 28 -26 140 -78 140 -65 0 4 26
6 57 4 52 -3 63 0 105 31 26 19 67 52 92 73 76 67 242 184 260 184 3 0 40 23
82 50 42 28 85 50 96 50 10 0 30 7 43 16 15 10 50 17 91 18 62 2 70 0 115 -33
27 -20 51 -44 55 -53 3 -10 10 -18 15 -18 5 0 9 -7 9 -15 0 -8 5 -15 10 -15
16 0 51 -40 45 -50 -4 -6 3 -10 14 -10 12 0 21 -5 21 -11 0 -16 19 -31 83 -69
31 -19 57 -38 57 -43 0 -4 5 -5 11 -1 6 3 14 2 18 -4 3 -6 40 -17 81 -24 70
-13 119 -11 170 9 8 4 17 7 20 8 42 10 93 34 129 60 57 40 165 93 207 101 30
6 35 2 93 -74 33 -45 61 -86 61 -92 0 -6 5 -8 10 -5 6 3 10 0 10 -7 0 -17 78
-104 91 -100 6 1 5 -7 -2 -20 -11 -21 -11 -22 6 -8 16 13 20 11 47 -20 16 -19
26 -27 22 -17 -3 9 -4 17 0 17 11 0 86 -42 86 -49 0 -10 93 3 163 23 32 9 65
16 73 16 9 0 28 9 43 19 15 11 42 21 61 23 35 3 35 3 35 55 1 36 -4 54 -13 58
-11 4 -13 22 -9 83 l6 77 -46 48 c-34 37 -52 48 -72 46 -31 -2 -63 10 -56 22
3 4 -8 7 -25 6 -16 -1 -30 -5 -30 -8 0 -17 -100 -32 -116 -18 -9 7 -16 5 -24
-8 -10 -16 -11 -16 -6 0 3 9 0 17 -6 17 -9 0 -9 3 0 12 18 18 14 32 -5 17 -10
-9 -14 -9 -10 -2 11 18 -14 54 -29 42 -8 -7 -10 -2 -6 16 2 14 0 25 -6 25 -5
0 -27 23 -48 50 -21 28 -44 50 -51 50 -7 0 -12 3 -11 8 4 11 -58 72 -73 72 -8
0 -23 6 -34 14 -11 7 -45 21 -75 30 -30 10 -62 20 -70 23 -26 9 -80 10 -80 1
0 -4 -15 -8 -33 -8 -18 0 -43 -7 -55 -16 -13 -9 -26 -13 -29 -10 -3 3 -20 -5
-37 -17 -17 -12 -37 -21 -43 -19 -7 2 -13 -5 -13 -14 0 -10 -5 -14 -15 -10 -8
3 -15 1 -15 -4 0 -6 -7 -10 -15 -10 -8 0 -23 -9 -32 -19 -9 -11 -21 -18 -25
-14 -5 3 -15 -3 -23 -13 -7 -11 -17 -16 -20 -12 -4 4 -14 0 -22 -8 -8 -8 -19
-11 -25 -8 -7 5 -8 2 -3 -6 6 -10 -1 -12 -35 -6 -30 5 -52 17 -76 41 -19 20
-34 40 -34 45 0 6 -7 10 -15 10 -8 0 -15 7 -15 15 0 8 -7 15 -15 15 -8 0 -15
7 -15 15 0 8 -4 15 -8 15 -5 0 -33 23 -63 51 -53 49 -78 66 -129 86 -14 6 -36
15 -50 21 -54 24 -166 42 -208 35z"/>
        <path d="M1421 4254 c0 -11 3 -14 6 -6 3 7 2 16 -1 19 -3 4 -6 -2 -5 -13z"/>
        <path d="M1412 4040 c0 -14 2 -19 5 -12 2 6 2 18 0 25 -3 6 -5 1 -5 -13z"/>
        <path d="M1393 3995 c0 -22 2 -30 4 -17 2 12 2 30 0 40 -3 9 -5 -1 -4 -23z"/>
        <path d="M4198 3913 c7 -3 16 -2 19 1 4 3 -2 6 -13 5 -11 0 -14 -3 -6 -6z"/>
        <path d="M2500 3520 c0 -5 5 -10 10 -10 6 0 10 5 10 10 0 6 -4 10 -10 10 -5 0
-10 -4 -10 -10z"/>
        <path d="M1292 3000 c0 -14 2 -19 5 -12 2 6 2 18 0 25 -3 6 -5 1 -5 -13z"/>
        <path d="M2941 3011 c-8 -5 -20 -7 -28 -4 -7 3 -16 -2 -19 -11 -3 -9 -15 -16
-25 -16 -19 0 -32 -9 -101 -73 -23 -21 -44 -34 -47 -28 -4 6 -13 4 -24 -4 -13
-10 -15 -14 -5 -18 8 -3 3 -9 -13 -15 -14 -6 -37 -24 -51 -41 -14 -16 -29 -27
-32 -23 -4 3 -4 -1 0 -11 3 -9 1 -24 -6 -33 -8 -8 -14 -43 -14 -79 -1 -54 2
-67 22 -85 12 -11 22 -28 22 -36 0 -19 75 -89 112 -105 15 -6 29 -18 31 -27 4
-15 5 -15 6 -1 1 14 8 15 44 8 23 -4 47 -9 52 -10 6 -1 -8 -5 -30 -9 l-40 -7
43 -2 c23 0 42 3 42 8 0 16 156 171 172 171 9 0 18 -9 21 -21 3 -12 10 -18 16
-14 7 4 11 -5 11 -24 0 -21 5 -31 15 -31 9 0 18 -7 21 -15 4 -8 10 -13 14 -10
8 5 47 -25 103 -77 16 -16 36 -28 46 -28 9 0 23 -6 30 -12 11 -11 12 -10 6 2
-7 12 -6 13 6 3 23 -19 119 -31 204 -26 100 5 155 13 155 22 0 4 9 7 20 8 11
1 20 -4 20 -10 0 -8 4 -7 9 2 5 8 22 16 37 18 15 3 46 12 68 22 34 16 74 30
96 36 13 4 67 27 88 37 18 9 28 9 42 0 27 -16 38 -15 15 2 -18 13 -18 14 3 20
12 4 32 4 43 1 13 -5 19 -3 15 3 -8 14 10 19 86 21 53 2 71 -1 86 -16 114
-106 173 -167 144 -149 -8 5 -10 2 -6 -8 3 -9 15 -16 25 -16 10 0 19 -7 19
-15 0 -8 9 -15 20 -15 11 0 20 -4 20 -10 0 -5 11 -12 25 -16 14 -3 22 -10 19
-15 -3 -5 2 -6 10 -3 9 4 18 -1 22 -10 3 -9 10 -14 14 -11 4 3 11 -2 14 -11 5
-13 9 -14 21 -4 12 10 15 10 15 0 0 -8 3 -10 7 -7 3 4 11 3 17 -2 10 -9 49
-18 84 -20 8 -1 10 -6 6 -13 -5 -10 -4 -10 5 -2 8 8 34 10 69 7 35 -3 85 1
127 11 80 19 203 63 225 81 43 34 243 65 224 34 -4 -8 3 -9 25 -4 23 5 31 3
31 -7 0 -11 9 -13 32 -10 22 3 35 0 45 -14 8 -10 13 -13 13 -5 0 9 11 11 38 7
20 -3 39 -5 42 -6 3 0 -1 -4 -8 -9 -16 -10 44 -7 70 4 9 4 35 34 57 68 l40 62
-16 59 c-10 39 -11 61 -4 65 6 4 6 12 2 20 -5 7 -13 11 -19 7 -6 -3 -13 -2
-17 4 -4 6 -11 8 -16 5 -5 -4 -9 1 -9 9 0 9 -7 16 -15 16 -8 0 -12 6 -9 13 2
7 -5 22 -17 33 -13 10 -19 13 -15 7 5 -9 2 -11 -8 -7 -8 3 -12 12 -9 20 4 11
-2 14 -27 12 -22 -2 -37 3 -43 14 -9 13 -15 14 -34 5 -13 -5 -23 -14 -23 -19
0 -11 17 -10 25 2 3 6 12 10 18 10 7 0 0 -8 -15 -18 -16 -9 -29 -21 -29 -27
-1 -5 -4 6 -8 25 -5 30 -10 35 -36 38 -16 1 -40 8 -52 14 -12 6 -31 8 -42 5
-14 -3 -21 0 -21 9 0 9 -11 14 -32 13 -18 0 -64 1 -101 3 -38 2 -71 0 -73 -4
-3 -4 -11 -5 -19 -2 -8 4 -33 -3 -55 -15 -22 -12 -48 -21 -58 -21 -9 0 -28 -9
-42 -20 -14 -11 -32 -20 -40 -20 -9 0 -26 -7 -38 -16 -12 -8 -22 -12 -22 -8 0
3 -11 -1 -25 -10 -26 -17 -55 -21 -55 -7 0 5 -20 5 -46 0 -49 -9 -85 5 -105
42 -5 11 -16 19 -23 19 -15 0 -76 64 -76 80 0 5 -3 9 -8 8 -11 -4 -112 85
-112 99 0 7 -10 12 -23 11 -13 -1 -36 3 -53 9 -16 6 -38 14 -49 19 -11 4 -29
9 -40 11 -10 2 -22 8 -25 13 -9 14 -240 18 -240 3 0 -6 -8 -9 -19 -6 -10 2
-25 -2 -33 -11 -11 -11 -18 -12 -27 -3 -8 8 -14 6 -24 -8 -8 -10 -19 -15 -25
-11 -8 4 -12 0 -12 -11 0 -14 -2 -15 -9 -4 -6 10 -13 10 -28 2 -11 -5 -23 -7
-27 -4 -3 3 -14 -2 -23 -13 -10 -10 -22 -19 -28 -19 -23 0 -111 -29 -126 -42
-9 -8 -20 -13 -25 -12 -5 1 -12 0 -16 -1 -40 -13 -138 -29 -185 -32 -57 -2
-78 9 -87 48 -5 17 -12 24 -21 20 -8 -3 -15 0 -15 7 -1 19 -69 107 -84 107 -7
0 -21 9 -31 20 -10 11 -24 20 -30 20 -7 0 -16 7 -19 16 -4 9 -13 14 -21 10 -8
-3 -15 0 -15 6 0 6 -3 8 -7 5 -3 -4 -12 -2 -20 4 -7 6 -13 8 -13 3 0 -5 -4 -3
-9 5 -5 7 -25 13 -45 13 -20 0 -39 4 -42 9 -7 11 -15 11 -33 0z"/>
        <path d="M1260 2779 c0 -5 5 -7 10 -4 6 3 10 8 10 11 0 2 -4 4 -10 4 -5 0 -10
-5 -10 -11z"/>
        <path d="M4858 2583 c7 -3 16 -2 19 1 4 3 -2 6 -13 5 -11 0 -14 -3 -6 -6z"/>
        <path d="M5780 2540 c20 -13 33 -13 25 0 -3 6 -14 10 -23 10 -15 0 -15 -2 -2
-10z"/>
        <path d="M2640 2470 c0 -6 7 -10 15 -10 8 0 15 2 15 4 0 2 -7 6 -15 10 -8 3
-15 1 -15 -4z"/>
        <path d="M4033 2405 c0 -8 4 -12 9 -9 4 3 8 9 8 15 0 5 -4 9 -8 9 -5 0 -9 -7
-9 -15z"/>
        <path d="M3187 2379 c7 -7 15 -10 18 -7 3 3 -2 9 -12 12 -14 6 -15 5 -6 -5z"/>
        <path d="M3860 2350 c0 -5 5 -10 10 -10 6 0 10 5 10 10 0 6 -4 10 -10 10 -5 0
-10 -4 -10 -10z"/>
        <path d="M4425 2350 c3 -5 11 -10 16 -10 6 0 7 5 4 10 -3 6 -11 10 -16 10 -6
0 -7 -4 -4 -10z"/>
        <path d="M3643 2293 c9 -2 23 -2 30 0 6 3 -1 5 -18 5 -16 0 -22 -2 -12 -5z"/>
        <path d="M5348 2263 c7 -3 16 -2 19 1 4 3 -2 6 -13 5 -11 0 -14 -3 -6 -6z"/>
        <path d="M7685 2180 c-3 -5 -1 -10 4 -10 6 0 11 5 11 10 0 6 -2 10 -4 10 -3 0
-8 -4 -11 -10z"/>
        <path d="M1117 1571 c-4 -17 -3 -21 5 -13 5 5 8 16 6 23 -3 8 -7 3 -11 -10z"/>
        <path d="M1101 1364 c0 -11 3 -14 6 -6 3 7 2 16 -1 19 -3 4 -6 -2 -5 -13z"/>
        <path d="M1170 869 c0 -5 5 -7 10 -4 6 3 10 8 10 11 0 2 -4 4 -10 4 -5 0 -10
-5 -10 -11z"/>
        <path d="M1980 806 c0 -2 7 -7 16 -10 8 -3 12 -2 9 4 -6 10 -25 14 -25 6z"/>
        <path d="M1548 793 c7 -3 16 -2 19 1 4 3 -2 6 -13 5 -11 0 -14 -3 -6 -6z"/>
        <path d="M2355 790 c-3 -6 1 -7 9 -4 18 7 21 14 7 14 -6 0 -13 -4 -16 -10z"/>
        <path d="M2530 796 c0 -2 9 -6 20 -9 11 -3 18 -1 14 4 -5 9 -34 13 -34 5z"/>
        <path d="M4598 783 c7 -3 16 -2 19 1 4 3 -2 6 -13 5 -11 0 -14 -3 -6 -6z"/>
        <path d="M2975 770 c3 -5 11 -10 16 -10 6 0 7 5 4 10 -3 6 -11 10 -16 10 -6 0
-7 -4 -4 -10z"/>
        <path d="M3825 770 c-3 -5 -1 -10 4 -10 6 0 11 5 11 10 0 6 -2 10 -4 10 -3 0
-8 -4 -11 -10z"/>
        <path d="M2758 753 c7 -3 16 -2 19 1 4 3 -2 6 -13 5 -11 0 -14 -3 -6 -6z"/>
        <path d="M3588 753 c6 -2 18 -2 25 0 6 3 1 5 -13 5 -14 0 -19 -2 -12 -5z"/>
        <path d="M3088 743 c7 -3 16 -2 19 1 4 3 -2 6 -13 5 -11 0 -14 -3 -6 -6z"/>
        <path d="M6118 723 c6 -2 18 -2 25 0 6 3 1 5 -13 5 -14 0 -19 -2 -12 -5z"/>
        <path d="M6218 718 c5 -5 16 -8 23 -6 8 3 3 7 -10 11 -17 4 -21 3 -13 -5z"/>
        <path d="M3360 400 c-12 -7 -9 -14 15 -39 36 -37 39 -37 52 -8 20 44 -24 75
-67 47z"/>
    </g>
</svg>
