<?xml version="1.0" standalone="no"?>
<!DOCTYPE svg PUBLIC "-//W3C//DTD SVG 20010904//EN"
        "http://www.w3.org/TR/2001/REC-SVG-20010904/DTD/svg10.dtd">
<svg version="1.0" xmlns="http://www.w3.org/2000/svg"
     width="979.000000pt" height="841.000000pt" viewBox="0 0 979.000000 841.000000"
     preserveAspectRatio="xMidYMid meet">
    <metadata>
        Created by potrace 1.16, written by Peter Selinger 2001-2019
    </metadata>
    <g transform="translate(0.000000,841.000000) scale(0.100000,-0.100000)"
       fill="#000000" stroke="none">
        <path d="M3547 8380 c-4 -15 0 -20 15 -20 13 0 18 6 16 17 -5 24 -25 27 -31 3z"/>
        <path d="M6185 8009 c-137 -5 -362 -15 -500 -23 -137 -9 -340 -20 -450 -26
-110 -6 -236 -15 -280 -20 -74 -8 -135 -13 -338 -25 -43 -2 -81 -7 -85 -9 -5
-3 -26 -7 -49 -9 -36 -4 -42 -2 -48 16 -6 19 -8 20 -12 5 -2 -10 -14 -20 -26
-22 -12 -3 -44 -10 -72 -15 -27 -6 -123 -13 -212 -15 -88 -2 -203 -9 -255 -15
-303 -34 -698 -49 -1450 -55 -267 -2 -490 -6 -495 -9 -5 -3 -72 -8 -148 -12
-77 -4 -185 -11 -240 -16 -154 -14 -201 -13 -227 5 -27 19 -70 21 -67 4 4 -33
-3 -47 -23 -50 -24 -3 -57 -52 -44 -65 4 -4 14 1 22 11 12 17 14 17 20 3 7
-20 -3 -37 -21 -37 -21 0 -28 -40 -17 -101 6 -32 7 -55 1 -57 -19 -7 -8 -21
22 -27 19 -4 33 -15 36 -26 3 -10 11 -19 19 -19 7 0 28 -9 46 -20 18 -11 42
-20 52 -20 11 0 16 -3 13 -6 -3 -4 5 -15 18 -26 19 -15 41 -19 117 -19 142 -1
335 9 411 22 38 6 102 12 143 13 40 0 74 3 74 6 0 3 179 5 397 5 336 0 553 5
923 20 30 1 91 5 135 9 44 4 125 9 180 11 55 3 190 12 300 20 110 8 252 17
315 20 63 3 139 10 168 16 30 6 85 11 123 12 38 1 69 5 69 9 0 4 8 7 18 6 9
-2 60 2 112 7 52 5 99 8 103 7 5 -1 45 2 90 8 45 5 107 12 137 15 30 3 98 9
150 15 52 5 183 12 290 15 107 4 278 13 380 21 184 15 889 22 982 10 47 -6
405 -22 703 -31 105 -4 231 -10 280 -15 54 -5 123 -4 172 2 123 14 486 7 507
-11 9 -8 15 -20 12 -28 -3 -7 -1 -13 4 -13 6 0 10 -13 10 -28 0 -15 6 -34 13
-41 10 -11 9 -12 -2 -6 -7 4 -12 4 -9 -1 31 -64 39 -93 36 -126 -2 -21 0 -38
4 -38 9 0 -2 -31 -18 -47 -6 -6 -21 -9 -33 -6 -12 3 -21 1 -21 -6 0 -7 14 -11
33 -9 44 3 57 -7 57 -43 0 -17 4 -38 10 -48 12 -23 15 -117 6 -151 -5 -17 -4
-21 2 -11 12 17 33 -148 35 -280 1 -54 5 -95 8 -93 4 2 6 -25 6 -59 0 -34 2
-91 6 -127 4 -45 3 -60 -5 -50 -8 12 -8 11 -3 -5 11 -33 16 -85 16 -177 1 -49
4 -88 7 -88 8 0 7 31 14 -595 5 -508 3 -607 -14 -584 -7 10 -8 9 -3 -6 11 -30
18 -162 8 -148 -4 6 -8 -69 -8 -167 0 -98 -3 -176 -7 -173 -5 2 -8 -5 -8 -17
0 -13 4 -19 12 -14 6 4 8 3 4 -4 -7 -12 -17 -329 -15 -497 1 -60 1 -236 0
-390 0 -154 -1 -291 0 -305 5 -165 7 -240 13 -415 8 -214 8 -303 1 -650 -4
-254 -12 -389 -30 -515 -7 -52 -10 -101 -7 -109 4 -10 1 -12 -8 -6 -10 6 -12
-2 -8 -38 3 -25 3 -49 0 -52 -3 -3 -7 -26 -9 -52 -1 -25 -8 -50 -15 -55 -7 -4
-8 -8 -2 -8 6 0 9 -13 6 -31 -3 -17 -8 -26 -11 -20 -4 6 -6 -15 -3 -46 6 -95
6 -95 -178 -72 -246 30 -368 38 -625 41 -302 4 -2506 -10 -2675 -17 -69 -2
-246 -7 -395 -10 -148 -3 -403 -15 -565 -25 -162 -11 -342 -22 -400 -25 -234
-13 -487 -27 -525 -30 -22 -2 -146 -8 -275 -14 -129 -6 -289 -16 -355 -21 -66
-6 -169 -12 -230 -15 -60 -3 -150 -7 -200 -10 -157 -8 -658 -32 -720 -34 -33
-1 -112 -3 -175 -5 -63 -2 -122 -6 -130 -9 -8 -3 -64 -8 -125 -12 -60 -3 -151
-9 -202 -13 -50 -4 -89 -4 -86 1 7 12 -12 8 -26 -5 -11 -11 -12 -10 -6 1 6 11
3 13 -13 9 -33 -9 -60 21 -54 60 4 28 2 31 -13 25 -14 -5 -16 -3 -10 7 11 18
7 85 -9 172 -7 38 -11 81 -9 96 3 19 2 23 -5 13 -6 -8 -9 65 -7 205 1 121 -2
262 -7 314 -13 132 -15 158 -17 211 -1 29 -6 49 -14 52 -10 4 -13 -2 -10 -21
4 -23 3 -25 -7 -9 -13 20 -4 80 11 72 5 -4 5 5 -1 20 -5 14 -7 47 -5 73 l5 47
-15 -30 -16 -30 7 30 c6 28 9 78 15 255 1 36 -2 87 -6 114 -6 36 -4 50 6 57 9
6 10 12 4 17 -6 4 -11 67 -13 142 -1 74 1 129 6 123 5 -8 12 9 19 45 18 87 22
142 11 142 -5 0 -7 9 -3 20 3 10 6 46 6 80 0 33 4 58 7 56 4 -2 6 32 6 77 -1
45 2 90 6 101 11 28 29 122 34 171 2 22 7 49 12 60 7 18 6 19 -11 5 -18 -14
-18 -14 -2 11 14 21 18 64 23 250 4 123 6 248 6 277 -1 32 3 52 10 52 7 0 7 4
-1 14 -9 11 -9 16 0 21 6 5 7 10 2 14 -6 4 -7 37 -2 86 8 83 20 351 23 515 1
52 5 101 9 108 5 7 3 12 -3 12 -6 0 -8 5 -4 12 4 6 9 45 10 87 2 42 6 92 9
111 3 19 8 49 10 65 3 17 8 42 11 58 4 18 2 27 -6 27 -9 0 -9 4 -2 13 10 13
22 120 21 199 0 25 5 49 11 53 8 5 8 11 -1 21 -9 11 -8 18 2 30 8 10 12 40 11
86 -1 41 3 76 9 84 6 8 9 26 6 41 -3 16 1 66 9 113 8 47 14 114 13 150 -4 173
4 510 11 510 11 0 10 119 -1 140 -4 8 -13 43 -20 78 -7 35 -18 70 -26 77 -7 8
-13 19 -13 26 0 7 -5 29 -11 48 -7 20 -14 43 -17 51 -2 8 -6 28 -7 44 -2 16
-10 33 -19 38 -8 5 -13 15 -10 23 4 8 -1 18 -10 21 -9 3 -16 12 -16 19 0 23
-52 57 -77 50 -13 -3 -23 -1 -23 5 0 13 -68 3 -88 -13 -11 -9 -10 -12 2 -19 9
-5 16 -17 16 -27 0 -23 -36 -56 -45 -42 -3 6 -12 11 -18 11 -7 0 -6 -4 3 -9
29 -18 11 -442 -20 -461 -5 -3 -9 -14 -9 -25 1 -11 -2 -56 -5 -100 -3 -44 -8
-165 -11 -269 -4 -105 -11 -213 -17 -240 -6 -28 -12 -100 -15 -160 -2 -60 -8
-116 -14 -123 -6 -7 -9 -18 -6 -25 2 -7 -2 -72 -9 -143 -14 -130 -30 -324 -39
-465 -3 -41 -8 -95 -11 -120 -3 -25 -7 -103 -9 -175 -2 -71 -6 -168 -9 -215
-3 -47 -10 -188 -16 -315 -6 -126 -16 -320 -21 -430 -6 -110 -11 -212 -10
-227 1 -14 -3 -38 -9 -53 -6 -15 -15 -81 -21 -148 -6 -67 -13 -138 -16 -157
-14 -104 -17 -170 -8 -184 6 -10 5 -26 -3 -48 -11 -31 -14 -103 -27 -700 -2
-87 0 -158 4 -158 4 0 8 -17 9 -37 7 -108 11 -143 16 -152 4 -6 8 -41 10 -78
2 -37 10 -81 17 -96 10 -22 10 -35 1 -60 -6 -18 -12 -72 -12 -122 0 -49 -1
-108 -1 -130 0 -22 2 -70 6 -107 5 -53 3 -68 -7 -68 -9 0 -9 -3 -2 -8 9 -6 23
-142 28 -272 1 -19 5 -41 9 -47 9 -14 10 -18 28 -98 6 -27 15 -54 19 -60 5 -5
7 -35 5 -65 -3 -37 -1 -48 5 -35 l9 20 2 -20 c1 -11 2 -32 2 -47 0 -16 4 -28
8 -28 5 0 9 -13 9 -28 0 -18 14 -47 37 -77 34 -44 56 -66 126 -128 11 -9 29
-17 39 -17 11 0 29 -5 41 -12 29 -15 446 -12 602 6 176 19 264 25 465 31 96 3
189 7 205 9 17 3 93 7 170 11 77 3 170 8 208 11 37 2 145 9 240 14 94 5 276
17 402 25 127 8 340 22 475 30 135 8 264 17 286 20 23 3 117 8 210 10 179 5
323 12 414 19 174 16 1701 44 2145 40 641 -6 984 -14 1033 -24 29 -7 80 -9
115 -6 237 24 636 14 817 -19 41 -8 91 -16 110 -18 58 -7 200 -49 200 -59 0
-5 4 -7 10 -3 5 3 37 -6 71 -21 39 -16 90 -28 133 -31 63 -4 76 -2 117 21 57
32 75 52 82 94 4 18 14 40 22 48 15 16 14 42 -7 97 -7 17 -8 82 -4 180 6 150
8 176 26 332 5 44 12 115 14 158 3 43 8 81 10 86 3 4 10 66 16 137 17 198 25
555 21 957 -2 109 -1 200 1 203 2 2 1 36 -3 75 -5 40 -6 76 -3 81 6 9 6 66 4
498 -1 288 9 994 14 1040 4 30 7 401 4 556 -1 28 1 55 4 60 4 8 -3 171 -16
379 -7 106 -16 303 -22 495 -3 85 -8 175 -10 200 -3 25 -7 99 -9 165 -4 113
-9 184 -14 195 -1 3 -4 32 -6 65 -4 73 -25 307 -32 355 -3 19 -6 80 -8 135 -1
55 -6 108 -10 117 -4 9 -7 37 -8 62 -1 25 -5 46 -8 46 -3 0 -6 6 -7 13 -16
113 -49 237 -67 250 -6 4 -5 10 5 17 8 5 10 10 4 10 -13 0 -34 43 -34 71 0 11
-7 22 -15 25 -8 4 -15 12 -15 20 0 8 -5 14 -11 14 -5 0 -8 4 -5 9 8 13 -29 78
-71 125 -73 82 -10 76 -743 71 -360 -2 -665 -2 -677 2 -13 3 -23 11 -23 19 0
19 -36 18 -44 -1 -7 -18 -92 -20 -383 -5 -299 14 -600 17 -878 9z m-5498
-4831 c-3 -7 -5 -2 -5 12 0 14 2 19 5 13 2 -7 2 -19 0 -25z m-17 -235 c-8 -14
-9 -5 -6 37 8 92 10 97 13 38 2 -32 -1 -66 -7 -75z m-20 -863 c0 -13 -7 -20
-20 -20 -18 0 -19 2 -8 20 7 11 16 20 20 20 5 0 8 -9 8 -20z m57 -397 c-3 -3
-11 -2 -17 2 -9 6 -9 10 1 16 14 8 27 -7 16 -18z"/>
        <path d="M9195 7210 c-3 -5 1 -10 9 -10 9 0 16 5 16 10 0 6 -4 10 -9 10 -6 0
-13 -4 -16 -10z"/>
        <path d="M8742 7000 c0 -19 2 -27 5 -17 2 9 2 25 0 35 -3 9 -5 1 -5 -18z"/>
        <path d="M4582 6968 c-11 -14 -5 -68 8 -68 4 0 11 11 14 24 3 13 9 31 12 40 7
19 -19 22 -34 4z"/>
        <path d="M5080 6961 c-14 -5 -47 -19 -75 -31 -27 -13 -53 -23 -57 -22 -5 1 -8
-2 -8 -8 0 -5 -5 -10 -11 -10 -6 0 -45 -20 -86 -45 -40 -25 -78 -45 -83 -45
-6 0 -33 -16 -60 -35 -27 -19 -54 -35 -60 -35 -5 0 -10 -4 -10 -10 0 -5 -11
-12 -25 -16 -13 -3 -24 -9 -23 -13 1 -3 -22 -31 -51 -61 -71 -73 -101 -123
-107 -173 -3 -23 -8 -44 -12 -47 -10 -7 4 -288 17 -335 17 -65 17 -66 -36 -49
-225 72 -279 84 -368 84 -214 1 -605 -85 -740 -161 -98 -55 -108 -62 -126 -81
-9 -10 -21 -18 -26 -18 -9 0 -37 -50 -33 -59 1 -2 -2 -7 -7 -10 -25 -18 -67
-156 -77 -251 -3 -30 -10 -81 -16 -112 -8 -42 -8 -63 0 -78 6 -12 10 -36 9
-55 -2 -18 2 -39 7 -46 6 -8 11 -21 12 -29 1 -28 27 -120 34 -120 3 0 14 -22
23 -49 9 -27 23 -52 32 -55 8 -3 13 -13 10 -20 -4 -10 2 -16 16 -18 12 -2 21
-9 19 -16 -1 -6 3 -12 9 -12 5 0 7 -5 3 -12 -5 -8 -2 -9 9 -5 9 3 16 3 16 -1
-3 -21 2 -43 9 -38 5 3 21 -6 38 -20 16 -14 40 -34 52 -45 13 -11 26 -18 29
-15 3 3 20 -6 38 -19 17 -14 37 -25 43 -25 7 0 12 -4 12 -8 0 -5 21 -15 48
-24 85 -30 119 -43 133 -54 13 -10 82 -17 179 -18 19 0 101 3 183 8 87 4 147
4 147 -1 0 -10 -137 -73 -157 -73 -7 0 -13 -4 -13 -9 0 -5 -10 -13 -22 -17
-13 -4 -50 -20 -82 -35 -33 -16 -65 -29 -73 -29 -7 0 -13 -4 -13 -10 0 -5 -7
-10 -15 -10 -8 0 -23 -4 -33 -9 -9 -6 -56 -28 -103 -50 -47 -21 -91 -46 -98
-55 -8 -9 -22 -16 -33 -16 -10 0 -30 -7 -43 -16 -14 -9 -25 -13 -25 -8 0 4
-10 -2 -22 -13 -30 -27 -104 -64 -112 -56 -3 4 -13 -2 -21 -13 -8 -10 -15 -15
-15 -11 0 4 -11 -4 -25 -18 -27 -26 -85 -60 -85 -49 0 3 -11 -8 -25 -24 -14
-17 -46 -43 -70 -59 -25 -15 -45 -31 -45 -35 0 -5 -5 -8 -10 -8 -12 0 -143
-99 -148 -112 -2 -4 -8 -8 -13 -8 -20 0 -283 -233 -439 -390 -92 -93 -178
-187 -257 -281 -21 -25 -58 -69 -83 -99 -25 -29 -52 -61 -61 -69 -9 -9 -34
-41 -57 -72 -22 -31 -47 -62 -55 -70 -7 -8 -25 -32 -39 -54 -14 -22 -33 -46
-42 -54 -9 -7 -16 -18 -16 -24 0 -5 -8 -17 -18 -26 -10 -9 -29 -31 -42 -50
-13 -19 -51 -67 -84 -107 -34 -40 -77 -94 -96 -120 -19 -25 -42 -54 -50 -63
-9 -9 -27 -33 -40 -53 -14 -21 -28 -38 -32 -38 -5 0 -8 -6 -8 -13 0 -7 -10
-23 -23 -37 -12 -14 -44 -56 -70 -93 l-47 -68 0 -92 c0 -61 4 -98 13 -106 9
-11 9 -12 0 -7 -9 5 -11 2 -7 -8 3 -8 13 -18 23 -21 9 -3 25 -19 35 -36 10
-16 29 -35 42 -41 14 -7 23 -17 20 -24 -3 -9 7 -16 29 -20 19 -3 35 -10 35
-15 0 -5 5 -9 11 -9 5 0 7 5 3 11 -4 7 3 6 17 -2 13 -7 27 -12 31 -11 4 1 5
-4 2 -12 -4 -11 5 -11 48 -4 29 5 61 10 71 9 9 0 15 3 13 7 -3 4 9 14 25 21
26 11 29 17 24 42 -5 21 -2 31 9 35 9 3 16 16 15 28 0 20 -1 20 -9 1 -9 -21
-14 -8 -11 27 1 9 -2 19 -8 22 -13 9 5 68 24 79 8 4 15 12 15 17 0 5 11 21 25
36 14 15 25 31 25 36 0 4 15 23 32 42 51 52 98 107 98 115 0 3 13 21 30 39 16
18 30 35 30 38 0 8 44 69 53 72 4 2 7 9 7 16 0 7 9 21 21 32 11 10 45 50 74
89 30 38 70 88 90 110 19 22 35 43 35 47 0 4 13 20 28 35 16 16 38 44 50 65
12 20 39 51 60 70 20 19 52 54 71 79 40 50 49 61 91 108 16 19 30 37 30 40 0
3 20 26 46 51 25 25 62 63 82 84 20 22 50 51 66 65 16 14 45 41 64 59 18 17
36 32 38 32 2 0 12 8 22 18 26 25 98 86 133 114 16 12 42 33 57 46 73 63 118
97 247 184 78 53 183 117 235 144 52 26 102 53 110 60 24 19 110 65 110 59 0
-4 12 3 26 14 15 12 35 21 44 21 10 0 23 6 29 14 7 8 23 17 37 20 14 4 49 18
77 32 29 14 93 41 142 61 50 19 115 48 145 63 30 16 81 40 113 54 31 14 81 37
110 50 151 69 185 84 222 97 22 7 49 21 60 30 18 14 82 49 92 49 2 0 8 -10 12
-22 8 -19 3 -29 -27 -56 -20 -18 -38 -28 -40 -22 -7 21 -29 9 -70 -37 -67 -77
-72 -83 -72 -88 0 -2 -18 -23 -40 -47 -22 -24 -40 -49 -40 -55 0 -7 -4 -13
-10 -13 -5 0 -10 -6 -10 -13 0 -19 -136 -187 -145 -179 -5 4 -5 1 -1 -6 5 -9
-1 -24 -16 -40 -36 -40 -105 -136 -153 -214 -5 -9 -29 -43 -51 -76 -43 -63
-134 -240 -134 -261 0 -7 -5 -9 -12 -5 -6 4 -8 3 -5 -3 4 -6 -1 -44 -10 -84
-11 -46 -16 -106 -15 -159 4 -113 5 -120 16 -113 5 4 7 -1 3 -11 -4 -9 -3 -24
2 -34 5 -9 17 -37 27 -62 10 -25 22 -48 27 -51 5 -3 8 -9 8 -13 -2 -20 13 -65
20 -60 5 3 9 0 9 -6 0 -6 11 -26 25 -44 14 -18 25 -36 25 -41 0 -4 16 -27 35
-51 19 -23 35 -46 35 -51 0 -14 75 -93 88 -93 6 0 11 -3 9 -8 -3 -11 75 -82
90 -82 7 0 13 -4 13 -10 0 -5 16 -18 35 -27 19 -10 65 -33 102 -52 37 -19 83
-36 101 -36 18 -1 38 -7 45 -14 9 -10 8 -11 -8 -5 -11 4 -17 4 -13 -1 11 -11
139 -16 173 -5 17 5 56 11 87 14 78 7 106 15 147 43 39 25 101 80 101 89 0 3
11 22 25 42 14 20 25 44 25 52 0 8 9 21 20 28 11 7 20 21 20 31 0 10 7 32 15
47 8 16 18 50 21 76 4 26 11 45 16 42 5 -3 6 6 2 21 -4 18 -1 32 11 45 10 11
18 37 19 59 0 22 4 35 7 29 4 -5 8 4 11 21 3 18 0 31 -6 31 -6 0 -4 4 4 10 8
5 15 28 17 57 2 26 8 61 13 78 7 20 7 31 0 33 -13 5 -13 29 1 34 7 2 7 12 -1
32 -6 18 -7 32 -1 35 5 3 8 26 8 51 -2 114 18 144 76 117 19 -9 44 -17 54 -17
11 0 23 -3 27 -7 4 -5 12 -9 17 -9 5 -1 10 -2 12 -4 1 -1 9 -3 17 -6 108 -29
210 -58 275 -78 200 -63 244 -75 274 -81 18 -3 40 -10 49 -15 9 -5 58 -21 109
-36 50 -15 90 -31 87 -36 -3 -4 1 -5 9 -2 8 3 43 -6 78 -19 35 -13 89 -30 119
-36 30 -7 69 -19 87 -27 51 -23 246 -42 366 -37 92 5 109 8 118 25 5 10 14 16
18 13 5 -2 17 6 26 19 11 14 24 22 33 18 9 -3 13 -1 9 5 -4 6 0 13 8 17 8 3
15 11 15 18 0 7 6 25 14 40 8 15 12 36 9 46 -3 12 2 22 11 25 10 4 16 18 16
35 0 16 3 32 7 36 4 3 8 21 10 39 1 17 5 64 9 102 3 39 10 77 15 86 4 9 6 26
4 38 -2 12 2 39 10 61 15 43 29 193 17 186 -4 -2 -7 12 -8 32 0 55 -15 156
-24 167 -5 6 -12 33 -16 60 -4 28 -9 53 -10 58 -1 4 -2 15 -3 24 0 9 -4 13 -8
10 -7 -7 -33 37 -38 66 -2 10 -16 32 -30 48 -14 17 -25 34 -25 37 0 4 -10 18
-23 32 -12 14 -35 41 -51 60 -34 41 -155 140 -172 140 -6 0 -49 29 -95 63 -46
35 -94 69 -106 75 -22 12 -22 31 -1 57 30 36 108 151 107 158 0 5 6 14 13 20
25 22 73 80 61 73 -7 -4 -13 -2 -13 4 0 6 7 13 15 16 8 4 15 10 15 15 0 4 11
25 25 45 14 20 25 45 25 55 0 11 5 19 10 19 6 0 10 9 10 19 0 11 6 26 13 33 6
7 18 25 26 40 8 15 21 36 30 45 9 10 15 29 14 43 -1 14 0 19 4 11 5 -13 54 98
52 117 -3 20 2 25 11 12 8 -12 10 -10 11 10 3 44 4 47 18 64 7 9 10 16 6 16
-4 0 -2 7 5 15 7 9 10 18 7 21 -3 3 2 22 10 42 9 20 15 55 15 77 -1 31 1 36 9
25 8 -12 9 -10 4 7 -3 12 -7 57 -9 100 -3 79 -19 163 -41 218 -7 17 -18 46
-25 65 -7 19 -17 40 -23 47 -5 7 -5 18 -1 24 4 7 3 9 -3 6 -6 -4 -16 0 -23 8
-7 8 -10 15 -7 15 19 0 -95 108 -198 188 -76 59 -110 82 -120 82 -6 0 -20 9
-29 19 -10 11 -25 20 -34 20 -10 0 -50 9 -90 20 -108 30 -344 25 -452 -9 -41
-13 -76 -27 -78 -32 -2 -4 -12 -8 -23 -8 -10 0 -19 -4 -19 -8 0 -4 -26 -23
-57 -42 -32 -19 -60 -37 -63 -40 -19 -20 -94 -61 -108 -58 -17 3 -84 123 -74
133 3 3 1 5 -5 5 -6 0 -16 12 -23 28 -16 40 -43 84 -69 118 -35 45 -201 214
-210 214 -4 0 -16 9 -27 21 -10 12 -61 46 -113 77 l-94 56 -121 3 c-67 1 -132
-1 -146 -6z m302 -438 c108 -87 216 -224 234 -300 4 -15 10 -32 14 -38 12 -18
40 -113 40 -139 0 -13 -7 -31 -15 -40 -8 -8 -15 -18 -15 -21 0 -4 -26 -37 -57
-75 -32 -37 -65 -76 -73 -86 -60 -75 -204 -351 -215 -411 -8 -52 10 -119 44
-160 14 -17 34 -43 44 -58 20 -29 78 -59 145 -75 36 -9 48 -19 73 -60 27 -43
35 -50 73 -55 99 -15 169 -11 219 14 27 13 46 29 44 36 -3 6 4 17 14 23 10 7
19 21 19 31 0 11 4 22 9 26 5 3 12 19 16 35 4 17 11 30 16 30 6 0 7 5 4 10 -4
6 -2 17 4 24 7 8 19 49 27 92 9 44 20 96 24 118 4 21 5 56 3 77 -4 23 -1 45 7
53 7 9 9 24 4 38 -4 12 -6 49 -5 81 1 33 -3 65 -9 72 -14 17 35 76 128 156 12
10 24 19 27 19 3 0 28 16 55 35 28 19 50 32 50 28 0 -4 14 6 30 22 17 16 30
25 30 20 0 -5 5 -4 12 3 7 7 20 12 30 12 10 0 18 5 18 11 0 6 7 9 15 6 8 -4
17 -2 20 3 4 6 16 10 29 10 12 0 27 5 32 10 17 17 196 17 230 1 108 -51 153
-83 176 -124 29 -55 35 -113 18 -193 -16 -77 -51 -159 -63 -148 -3 3 -3 -3 0
-14 2 -11 0 -23 -6 -26 -6 -4 -11 -14 -11 -23 0 -8 -9 -27 -19 -42 -11 -15
-23 -40 -27 -57 -9 -38 -116 -243 -167 -318 -63 -93 -197 -268 -231 -302 -47
-45 -86 -69 -137 -83 -42 -12 -57 -10 -155 14 -60 15 -120 32 -133 37 -13 5
-40 11 -60 14 -20 3 -61 12 -91 20 -95 25 -193 16 -297 -27 -30 -12 -33 -12
-55 17 -12 16 -37 44 -55 63 -18 19 -33 38 -33 43 0 4 -6 8 -13 8 -8 0 -22 9
-32 20 -10 11 -23 20 -30 20 -6 0 -20 8 -31 19 -11 10 -38 25 -60 32 -39 14
-73 42 -75 63 -1 6 0 23 1 39 1 15 -3 27 -9 27 -7 0 -11 22 -11 54 0 35 -5 58
-15 66 -8 7 -15 16 -15 21 0 15 -43 103 -53 110 -16 11 1 27 41 39 43 13 80
28 102 41 8 5 27 14 41 20 26 10 43 40 39 68 -1 8 3 17 8 20 15 10 24 62 10
59 -8 -2 -13 8 -13 28 -1 17 -9 43 -18 58 -10 15 -15 31 -12 36 3 6 -1 10 -10
10 -11 0 -15 5 -11 15 3 10 -1 15 -13 15 -10 0 -30 10 -45 21 -21 16 -26 27
-22 44 8 32 -9 35 -69 14 -74 -26 -185 -7 -228 37 -12 13 -28 24 -34 24 -7 0
-13 6 -13 13 0 6 -6 24 -14 39 -34 65 -28 197 10 236 8 7 17 18 21 25 16 24
119 110 148 124 17 7 37 18 45 23 44 28 191 90 223 93 21 2 41 7 44 11 12 12
32 6 65 -21z m-1232 -823 c68 -10 184 -40 235 -61 17 -6 36 -13 43 -15 79 -16
315 -191 304 -226 -1 -4 2 -8 8 -8 5 0 10 -7 10 -17 0 -9 3 -13 7 -10 8 9 35
-44 29 -59 -3 -7 -20 -15 -38 -19 -18 -3 -64 -22 -103 -40 -129 -62 -161 -74
-233 -90 -40 -9 -72 -21 -72 -27 0 -6 -7 -8 -15 -5 -8 4 -35 -5 -59 -19 -41
-23 -65 -27 -218 -37 -335 -23 -457 -15 -530 36 -16 10 -28 16 -28 12 0 -3
-14 2 -30 12 -19 11 -34 30 -40 53 -40 142 -6 294 85 373 46 40 233 107 299
107 15 0 25 4 22 9 -3 5 4 9 17 9 12 1 56 8 97 16 90 17 125 18 210 6z m1850
-40 c0 -5 -9 -14 -19 -20 -11 -5 -28 -23 -37 -40 -10 -16 -21 -27 -26 -24 -4
3 -5 -2 -2 -10 4 -9 -1 -18 -10 -22 -9 -3 -16 -14 -16 -23 -1 -26 -88 -117
-101 -104 -7 7 2 30 31 79 24 38 50 76 59 85 9 9 31 32 49 52 30 34 72 50 72
27z m-725 -1073 c15 -25 14 -47 -4 -47 -12 0 -47 53 -55 83 l-7 29 25 -19 c13
-10 32 -30 41 -46z m848 -178 c53 -12 76 -32 25 -23 -51 9 -138 35 -138 41 0
5 28 0 113 -18z m417 -94 c41 -8 111 -24 155 -36 44 -11 91 -23 105 -26 47 -9
89 -33 139 -81 28 -27 51 -52 51 -55 0 -4 7 -15 15 -24 105 -120 122 -180 99
-366 -8 -67 -19 -133 -24 -147 -5 -14 -11 -51 -15 -82 -4 -32 -10 -58 -15 -58
-4 0 -6 -8 -3 -19 3 -12 -5 -26 -23 -40 -47 -37 -130 -30 -302 28 -416 139
-596 193 -812 246 -192 48 -365 102 -380 120 -8 9 -10 29 -6 52 4 21 8 47 9
59 2 11 13 37 25 56 12 19 22 42 22 51 0 8 7 18 16 21 9 4 14 13 10 21 -3 8
-2 15 3 15 13 0 55 94 44 97 -24 8 38 172 65 173 8 0 27 -9 42 -20 32 -23 134
-39 247 -40 68 0 201 23 308 54 65 19 132 19 225 1z m-1412 -91 l64 -61 -12
-59 c-11 -54 -47 -144 -58 -144 -2 0 -2 7 1 14 4 10 1 13 -9 9 -7 -3 -14 -9
-14 -15 0 -5 -4 -6 -10 -3 -5 3 -15 -3 -22 -15 -7 -11 -18 -20 -25 -20 -7 0
-13 -7 -13 -15 0 -8 -4 -15 -8 -15 -4 0 -8 -10 -9 -22 -1 -11 -6 -24 -11 -27
-8 -5 -7 -66 1 -126 7 -45 57 -134 83 -147 36 -17 40 -34 35 -168 -7 -185 -50
-516 -71 -545 -4 -5 -13 -32 -20 -60 -8 -27 -16 -52 -20 -55 -3 -3 -16 -21
-28 -41 -28 -47 -79 -71 -155 -74 -133 -5 -285 69 -302 146 -3 15 -15 35 -26
45 -10 9 -19 23 -19 29 0 7 -7 18 -15 25 -8 7 -15 21 -15 32 0 12 -4 16 -11
12 -7 -4 -10 -1 -7 7 3 8 1 23 -5 34 -13 25 -17 94 -6 101 5 3 7 9 5 13 -6 10
30 107 47 127 23 28 32 40 44 59 7 11 26 41 43 68 16 26 25 47 20 47 -6 0 -14
-8 -17 -17 -8 -21 -28 -43 -39 -43 -4 0 0 8 9 18 8 9 15 19 14 22 -3 15 38 60
50 56 8 -4 11 -1 7 5 -8 13 16 60 27 53 5 -3 6 2 3 10 -4 9 1 18 10 22 9 3 13
10 10 15 -3 5 0 9 5 9 14 0 14 -17 1 -25 -15 -9 -12 -25 3 -19 7 2 22 19 32
37 10 18 29 43 42 57 13 14 23 29 23 35 1 5 14 26 30 45 17 19 30 41 30 49 0
11 -3 11 -13 -3 -12 -16 -14 -16 -14 -3 0 19 24 31 32 16 6 -9 35 12 35 26 0
3 13 18 29 33 16 15 37 41 48 58 10 17 31 50 46 73 15 23 25 47 21 54 -4 7 -4
9 0 6 8 -7 44 27 62 57 11 19 -3 177 -18 199 -3 6 -10 28 -14 50 -8 47 -11 48
94 -51z m-394 -609 c-4 -8 -11 -15 -16 -15 -6 0 -5 6 2 15 7 8 14 15 16 15 2
0 1 -7 -2 -15z m-219 -315 c3 -5 1 -10 -4 -10 -6 0 -11 5 -11 10 0 6 2 10 4
10 3 0 8 -4 11 -10z"/>
        <path d="M5621 6154 c0 -11 3 -14 6 -6 3 7 2 16 -1 19 -3 4 -6 -2 -5 -13z"/>
        <path d="M8782 6640 c0 -14 2 -19 5 -12 2 6 2 18 0 25 -3 6 -5 1 -5 -13z"/>
        <path d="M501 6384 c0 -11 3 -14 6 -6 3 7 2 16 -1 19 -3 4 -6 -2 -5 -13z"/>
        <path d="M2982 5280 c0 -14 2 -19 5 -12 2 6 2 18 0 25 -3 6 -5 1 -5 -13z"/>
        <path d="M2815 5219 c-4 -6 -5 -13 -2 -16 7 -7 27 6 27 18 0 12 -17 12 -25 -2z"/>
        <path d="M3495 4520 c-3 -5 -1 -10 4 -10 6 0 11 5 11 10 0 6 -2 10 -4 10 -3 0
-8 -4 -11 -10z"/>
        <path d="M4108 2693 c7 -3 16 -2 19 1 4 3 -2 6 -13 5 -11 0 -14 -3 -6 -6z"/>
        <path d="M547 501 c3 -12 9 -21 14 -21 14 0 11 16 -5 29 -12 10 -13 8 -9 -8z"/>
        <path d="M1576 453 c-11 -11 -6 -23 9 -23 8 0 15 4 15 9 0 13 -16 22 -24 14z"/>
    </g>
</svg>
